if (_typeface_js && _typeface_js.loadFace) _typeface_js.loadFace({"glyphs":{"¦":{"x_min":257,"x_max":437,"ha":694,"o":"m 257 927 l 437 927 l 437 445 l 257 445 l 257 927 m 257 213 l 437 213 l 437 -231 l 257 -231 l 257 213 "},"Ő":{"x_min":37,"x_max":844,"ha":882,"o":"m 442 947 q 844 488 844 947 q 779 175 844 298 q 436 -20 677 -20 q 124 131 227 -20 q 37 478 37 259 q 442 947 37 947 m 442 748 q 232 463 232 748 q 439 160 232 160 q 607 266 553 160 q 649 476 649 348 q 442 748 649 748 m 774 1135 l 631 996 l 491 996 l 608 1135 l 774 1135 m 518 1135 l 375 996 l 236 996 l 353 1135 l 518 1135 "},"Ž":{"x_min":47,"x_max":668,"ha":715,"o":"m 55 926 l 667 926 l 667 707 l 284 176 l 668 176 l 668 0 l 47 0 l 47 184 l 450 741 l 55 741 l 55 926 m 464 996 l 260 996 l 151 1135 l 292 1135 l 362 1065 l 431 1135 l 573 1135 l 464 996 "},"Á":{"x_min":22.375,"x_max":884.328125,"ha":905,"o":"m 290 233 l 219 0 l 22 0 l 307 926 l 600 926 l 884 0 l 682 0 l 612 233 l 290 233 m 567 409 l 450 793 l 334 409 l 567 409 m 674 1135 l 512 996 l 354 996 l 482 1135 l 674 1135 "},"Î":{"x_min":-26.734375,"x_max":373.71875,"ha":347,"o":"m 75 926 l 272 926 l 272 0 l 75 0 l 75 926 m 71 1135 l 275 1135 l 373 996 l 233 996 l 173 1065 l 112 996 l -26 996 l 71 1135 "},"e":{"x_min":43,"x_max":734.359375,"ha":776,"o":"m 727 318 l 242 318 q 444 125 242 125 q 687 250 602 125 l 694 250 l 694 95 q 596 18 644 42 q 407 -23 514 -23 q 152 69 245 -23 q 43 383 43 179 q 129 671 43 567 q 403 784 223 784 q 656 677 571 784 q 734 408 734 580 q 727 318 734 366 m 589 462 q 557 551 579 520 q 408 618 511 618 q 240 462 240 618 l 589 462 "},"»":{"x_min":56.28125,"x_max":532.359375,"ha":589,"o":"m 421 168 l 280 168 l 375 397 l 280 629 l 421 629 l 532 397 l 421 168 m 198 168 l 56 168 l 153 397 l 56 629 l 198 629 l 309 397 l 198 168 "},"∆":{"x_min":22.375,"x_max":902.640625,"ha":926,"o":"m 22 0 l 361 926 l 557 926 l 902 0 l 22 0 m 280 164 l 640 164 l 460 706 l 280 164 "},"ļ":{"x_min":54.015625,"x_max":281,"ha":354,"o":"m 73 0 l 73 966 l 281 966 l 281 0 l 73 0 m 109 -64 l 253 -64 l 162 -231 l 54 -231 l 109 -64 "},"ò":{"x_min":42,"x_max":764.890625,"ha":808,"o":"m 404 782 q 764 393 764 782 q 717 159 764 261 q 397 -23 632 -23 q 144 70 229 -23 q 42 392 42 181 q 404 782 42 782 m 407 587 q 233 371 233 587 q 404 142 233 142 q 575 382 575 142 q 407 587 575 587 m 191 987 l 384 987 l 511 839 l 353 839 l 191 987 "},"ţ":{"x_min":18,"x_max":599,"ha":633,"o":"m 342 753 l 599 753 l 599 568 l 335 568 l 335 314 q 349 200 335 235 q 436 143 371 143 q 579 219 514 143 l 579 65 q 368 -22 493 -22 q 154 115 193 -22 q 139 328 139 179 q 139 564 139 449 l 18 564 l 18 696 q 235 953 181 730 l 342 953 l 342 753 m 291 -64 l 435 -64 l 345 -231 l 235 -231 l 291 -64 "},"^":{"x_min":6.109375,"x_max":688.34375,"ha":694,"o":"m 194 465 l 6 465 l 228 932 l 465 932 l 688 465 l 499 465 l 347 788 l 194 465 "},"«":{"x_min":56.28125,"x_max":532.359375,"ha":589,"o":"m 166 629 l 307 629 l 212 398 l 307 168 l 166 168 l 56 398 l 166 629 m 389 629 l 532 629 l 434 398 l 532 168 l 389 168 l 278 398 l 389 629 "},"∙":{"x_min":56,"x_max":269,"ha":325,"o":"m 165 474 q 269 394 269 474 q 161 314 269 314 q 56 391 56 314 q 165 474 56 474 "},"í":{"x_min":71,"x_max":408.53125,"ha":349,"o":"m 71 0 l 71 760 q 169 748 124 748 q 279 760 214 748 l 279 0 l 71 0 m 408 987 l 246 839 l 88 839 l 215 987 l 408 987 "},"ˆ":{"x_min":135.640625,"x_max":558.140625,"ha":694,"o":"m 244 987 l 448 987 l 558 839 l 416 839 l 347 917 l 277 839 l 135 839 l 244 987 "},"ū":{"x_min":71,"x_max":750,"ha":820,"o":"m 750 761 l 750 0 l 551 0 l 551 151 q 481 40 521 76 q 310 -23 413 -23 q 76 197 102 -23 q 71 380 71 242 l 71 761 l 279 761 l 279 385 q 291 224 279 259 q 397 162 315 162 q 523 242 490 162 q 542 414 542 290 l 542 761 l 750 761 m 599 964 l 599 862 l 221 862 l 221 964 l 599 964 "},"ņ":{"x_min":71,"x_max":763,"ha":833,"o":"m 71 0 l 71 761 l 267 761 l 267 580 q 333 707 296 666 q 524 784 402 784 q 680 735 618 784 q 758 594 745 685 q 763 458 763 567 l 763 0 l 555 0 l 555 390 q 537 536 555 503 q 436 587 509 587 q 299 501 341 587 q 279 365 279 460 l 279 0 l 71 0 m 358 -64 l 502 -64 l 411 -231 l 302 -231 l 358 -64 "},"µ":{"x_min":37,"x_max":660,"ha":694,"o":"m 37 -240 l 37 667 l 217 667 l 217 314 q 352 128 217 128 q 481 318 481 128 l 481 667 l 660 667 l 660 0 l 481 0 l 481 77 q 439 18 460 36 q 348 -14 401 -14 q 217 70 266 -14 l 217 -240 l 37 -240 "},"č":{"x_min":43,"x_max":648.21875,"ha":704,"o":"m 648 673 l 648 466 l 640 466 q 564 546 605 521 q 427 587 501 587 q 242 368 242 587 q 286 208 242 266 q 435 142 336 142 q 642 276 570 142 l 648 276 q 648 175 648 214 q 648 95 648 152 q 390 -23 556 -23 q 148 71 234 -23 q 43 392 43 187 q 129 671 43 567 q 393 783 221 783 q 648 673 547 783 m 494 839 l 290 839 l 181 987 l 322 987 l 392 908 l 461 987 l 603 987 l 494 839 "},"’":{"x_min":58.296875,"x_max":212,"ha":266,"o":"m 74 927 l 212 927 l 212 907 q 165 647 212 763 l 58 647 q 80 833 80 714 q 74 927 80 875 "},"-":{"x_min":0,"x_max":340,"ha":340,"o":"m 0 472 l 340 472 l 340 325 l 0 325 l 0 472 "},"Q":{"x_min":38,"x_max":844,"ha":883,"o":"m 567 0 l 652 -136 l 447 -136 l 380 -19 q 242 22 291 -4 q 38 474 38 132 q 125 816 38 701 q 445 947 225 947 q 844 495 844 947 q 567 0 844 88 m 442 748 q 233 458 233 748 q 273 256 233 333 q 440 156 325 156 q 607 261 554 156 q 649 469 649 342 q 442 748 649 748 "},"M":{"x_min":75,"x_max":1026,"ha":1101,"o":"m 1026 926 l 1026 0 l 839 0 l 839 550 q 839 613 839 569 q 839 702 839 677 l 839 733 q 779 454 811 558 l 644 0 l 449 0 l 317 452 q 261 742 294 529 l 261 715 q 261 655 261 700 q 261 548 261 586 l 261 0 l 75 0 l 75 926 l 373 926 l 509 423 q 551 166 532 338 q 592 427 568 336 l 723 926 l 1026 926 "},"œ":{"x_min":43,"x_max":1249.140625,"ha":1293,"o":"m 1249 320 l 769 320 q 965 130 769 130 q 1209 243 1119 130 l 1216 243 l 1216 94 q 1123 23 1166 46 q 936 -23 1040 -23 q 659 119 744 -23 q 582 28 625 58 q 396 -23 507 -23 q 150 67 242 -23 q 76 185 101 116 q 43 391 43 282 q 405 783 43 783 q 672 652 600 783 q 765 750 717 725 q 921 783 828 783 q 1249 407 1249 783 q 1249 320 1249 376 m 1113 469 q 936 617 1093 617 q 761 469 782 617 l 1113 469 m 404 596 q 227 374 227 596 q 264 216 227 276 q 400 142 309 142 q 539 216 492 142 q 578 377 578 279 q 404 596 578 596 "},"ě":{"x_min":43,"x_max":734.359375,"ha":776,"o":"m 727 318 l 242 318 q 444 125 242 125 q 687 250 602 125 l 694 250 l 694 95 q 596 18 644 42 q 407 -23 514 -23 q 152 69 245 -23 q 43 383 43 179 q 129 671 43 567 q 403 784 223 784 q 656 677 571 784 q 734 408 734 580 q 727 318 734 366 m 589 462 q 557 551 579 520 q 408 618 511 618 q 240 462 240 618 l 589 462 m 504 839 l 300 839 l 191 987 l 332 987 l 402 908 l 471 987 l 613 987 l 504 839 "},"{":{"x_min":90,"x_max":470.34375,"ha":514,"o":"m 249 392 q 316 322 298 362 q 332 226 332 288 l 332 64 q 358 -46 332 -29 q 442 -59 378 -59 q 470 -59 451 -59 l 470 -178 q 393 -180 388 -178 l 375 -180 q 219 -139 267 -180 q 166 10 166 -95 l 166 213 q 152 288 166 263 q 90 327 135 318 l 90 458 q 166 572 166 473 l 166 775 q 219 924 166 881 q 375 964 267 964 q 470 964 394 964 l 470 835 q 443 835 452 835 q 356 821 376 835 q 332 721 332 805 l 332 559 q 316 463 332 497 q 249 392 298 423 "},"¼":{"x_min":62.265625,"x_max":1309.390625,"ha":1347,"o":"m 402 926 l 402 370 l 263 370 l 263 793 q 241 779 258 789 l 62 668 l 62 783 l 284 926 l 402 926 m 928 944 l 1006 888 l 407 -18 l 330 38 l 928 944 m 1247 556 l 1247 204 l 1309 204 l 1309 98 l 1247 98 l 1247 0 l 1118 0 l 1118 94 l 843 94 l 843 234 l 1037 556 l 1247 556 m 1118 200 l 1118 455 l 957 200 l 1118 200 "},"#":{"x_min":9.5,"x_max":842.28125,"ha":852,"o":"m 801 415 l 776 253 l 636 253 l 594 0 l 409 0 l 450 253 l 333 253 l 292 0 l 109 0 l 150 253 l 9 253 l 34 415 l 174 415 l 193 530 l 54 530 l 78 692 l 218 692 l 256 926 l 439 926 l 401 692 l 518 692 l 556 926 l 741 926 l 703 692 l 842 692 l 817 530 l 678 530 l 660 415 l 801 415 m 493 530 l 376 530 l 358 415 l 475 415 l 493 530 "},"Ê":{"x_min":75,"x_max":679.71875,"ha":750,"o":"m 75 926 l 679 926 l 679 741 l 264 741 l 264 550 l 679 550 l 679 374 l 264 374 l 264 176 l 679 176 l 679 0 l 75 0 l 75 926 m 274 1135 l 478 1135 l 588 996 l 446 996 l 377 1065 l 307 996 l 165 996 l 274 1135 "},")":{"x_min":49.9375,"x_max":370,"ha":421,"o":"m 214 -180 l 53 -180 q 119 -55 100 -100 q 191 388 191 115 q 122 828 191 658 q 49 966 98 887 l 212 966 q 295 822 266 894 q 370 388 370 635 q 214 -180 370 16 "},"Å":{"x_min":21.890625,"x_max":883.78125,"ha":905,"o":"m 290 233 l 219 0 l 21 0 l 306 926 l 600 926 l 883 0 l 681 0 l 611 233 l 290 233 m 567 409 l 449 793 l 333 409 l 567 409 m 452 1242 q 545 1203 508 1242 q 582 1109 582 1165 q 544 1019 582 1057 q 452 982 506 982 q 360 1019 398 982 q 323 1112 323 1057 q 360 1204 323 1167 q 452 1242 397 1242 m 452 1168 q 413 1151 429 1168 q 397 1112 397 1135 q 413 1072 397 1089 q 452 1056 429 1056 q 491 1072 475 1056 q 508 1111 508 1088 q 492 1151 508 1135 q 452 1168 476 1168 "},"⋲":{"x_min":9.5,"x_max":685.625,"ha":694,"o":"m 108 472 l 9 537 q 84 671 48 631 q 220 731 138 731 q 364 694 266 731 q 483 662 453 662 q 543 681 520 662 q 583 733 560 695 l 685 673 q 602 544 644 586 q 464 488 544 488 q 322 525 427 488 q 210 557 235 557 q 146 532 171 557 q 108 472 130 516 m 108 190 l 9 255 q 84 389 48 349 q 220 449 138 449 q 364 412 266 449 q 484 380 453 380 q 583 451 542 380 l 685 391 q 602 262 644 304 q 464 206 544 206 q 322 243 427 206 q 210 275 235 275 q 146 249 171 275 q 108 190 130 234 "},"¸":{"x_min":227.859375,"x_max":427.25,"ha":694,"o":"m 283 -64 l 427 -64 l 336 -231 l 227 -231 l 283 -64 "},"a":{"x_min":47,"x_max":681,"ha":751,"o":"m 681 0 l 507 0 l 507 113 q 276 -23 440 -23 q 114 32 177 -23 q 47 186 47 89 q 191 387 47 328 q 384 439 255 414 q 497 529 497 462 q 450 597 497 573 q 365 617 412 617 q 80 479 196 617 l 80 664 q 197 741 141 717 q 395 783 291 783 q 632 692 558 783 q 681 484 681 631 l 681 0 m 500 364 q 359 306 472 338 q 236 200 236 271 q 264 136 236 159 q 334 113 292 113 q 481 214 441 113 q 500 364 500 262 "},"Ę":{"x_min":75,"x_max":704.84375,"ha":750,"o":"m 679 0 q 616 -89 616 -44 q 662 -136 616 -136 q 704 -128 678 -136 l 704 -194 q 614 -213 659 -213 q 505 -123 505 -213 q 597 0 505 -44 l 75 0 l 75 926 l 679 926 l 679 741 l 264 741 l 264 550 l 679 550 l 679 374 l 264 374 l 264 176 l 679 176 l 679 0 "},"=":{"x_min":68,"x_max":729,"ha":797,"o":"m 68 524 l 68 644 l 729 644 l 729 524 l 68 524 m 68 301 l 68 421 l 729 421 l 729 301 l 68 301 "},"˚":{"x_min":218,"x_max":477,"ha":695,"o":"m 347 1091 q 440 1053 403 1091 q 477 959 477 1015 q 439 869 477 906 q 347 832 401 832 q 255 869 292 832 q 218 961 218 906 q 255 1053 218 1016 q 347 1091 292 1091 m 347 1017 q 308 1000 324 1017 q 292 961 292 984 q 308 922 292 938 q 347 906 324 906 q 386 921 370 906 q 403 960 403 937 q 387 1000 403 984 q 347 1017 371 1017 "},"ú":{"x_min":71,"x_max":750,"ha":820,"o":"m 750 761 l 750 0 l 551 0 l 551 151 q 481 40 521 76 q 310 -23 413 -23 q 76 197 102 -23 q 71 380 71 242 l 71 761 l 279 761 l 279 385 q 291 224 279 259 q 397 162 315 162 q 523 242 490 162 q 542 414 542 290 l 542 761 l 750 761 m 632 987 l 470 839 l 311 839 l 439 987 l 632 987 "},"¯":{"x_min":0,"x_max":694,"ha":694,"o":"m 0 1241 l 694 1241 l 694 1079 l 0 1079 l 0 1241 "},"Z":{"x_min":47,"x_max":668,"ha":715,"o":"m 55 926 l 667 926 l 667 707 l 284 176 l 668 176 l 668 0 l 47 0 l 47 184 l 450 741 l 55 741 l 55 926 "},"u":{"x_min":71,"x_max":750,"ha":820,"o":"m 750 761 l 750 0 l 551 0 l 551 151 q 481 40 521 76 q 310 -23 413 -23 q 76 197 102 -23 q 71 380 71 242 l 71 761 l 279 761 l 279 385 q 291 224 279 259 q 397 162 315 162 q 523 242 490 162 q 542 414 542 290 l 542 761 l 750 761 "},"k":{"x_min":71,"x_max":788.96875,"ha":799,"o":"m 71 0 l 71 966 l 283 966 l 283 407 l 524 753 l 773 753 l 471 381 l 788 0 l 527 0 l 279 347 l 279 0 l 71 0 "},"Ù":{"x_min":75,"x_max":785,"ha":860,"o":"m 75 927 l 272 927 l 272 396 q 299 230 272 275 q 428 167 337 167 q 572 251 539 167 q 588 401 588 291 l 588 927 l 785 927 l 785 401 q 770 200 785 248 q 429 -20 705 -20 q 206 38 295 -20 q 83 229 107 102 q 75 387 75 275 l 75 927 m 219 1135 l 411 1135 l 539 996 l 381 996 l 219 1135 "},"Ů":{"x_min":75,"x_max":785,"ha":860,"o":"m 75 927 l 272 927 l 272 396 q 299 230 272 275 q 428 167 337 167 q 572 251 539 167 q 588 401 588 291 l 588 927 l 785 927 l 785 401 q 770 200 785 248 q 429 -20 705 -20 q 206 38 295 -20 q 83 229 107 102 q 75 387 75 275 l 75 927 m 430 1242 q 523 1203 486 1242 q 560 1109 560 1165 q 522 1019 560 1057 q 430 982 484 982 q 338 1019 376 982 q 301 1112 301 1057 q 338 1204 301 1167 q 430 1242 375 1242 m 430 1168 q 391 1151 407 1168 q 375 1112 375 1135 q 391 1072 375 1089 q 430 1056 407 1056 q 469 1072 453 1056 q 486 1111 486 1088 q 470 1151 486 1135 q 430 1168 454 1168 "},"¢":{"x_min":68,"x_max":671.5,"ha":796,"o":"m 485 999 l 485 880 q 671 779 601 859 l 671 576 l 662 576 q 485 681 611 666 l 485 220 q 662 349 592 235 l 671 349 l 671 184 q 590 101 633 129 q 485 56 554 77 l 485 -81 l 394 -81 l 394 56 q 122 236 198 79 q 68 488 68 351 q 394 880 68 844 l 394 999 l 485 999 m 394 681 q 312 640 340 666 q 255 463 255 585 q 320 264 255 332 q 394 220 344 238 l 394 681 "},"Ş":{"x_min":47,"x_max":675,"ha":717,"o":"m 642 859 l 642 639 q 530 727 585 702 q 386 760 458 760 q 292 736 331 760 q 246 658 246 709 q 302 576 246 603 q 408 546 314 571 q 600 458 544 510 q 675 274 675 388 q 631 119 675 189 q 512 13 588 49 q 355 -20 440 -20 q 77 75 206 -20 l 77 277 q 191 186 140 212 q 345 149 266 149 q 441 172 403 149 q 488 255 488 201 q 434 340 488 310 q 331 375 406 356 q 131 461 195 409 q 47 654 47 530 q 153 877 47 794 q 374 947 242 947 q 642 859 518 947 m 288 -64 l 432 -64 l 341 -231 l 233 -231 l 288 -64 "},"é":{"x_min":43,"x_max":734.359375,"ha":776,"o":"m 727 318 l 242 318 q 444 125 242 125 q 687 250 602 125 l 694 250 l 694 95 q 596 18 644 42 q 407 -23 514 -23 q 152 69 245 -23 q 43 383 43 179 q 129 671 43 567 q 403 784 223 784 q 656 677 571 784 q 734 408 734 580 q 727 318 734 366 m 589 462 q 557 551 579 520 q 408 618 511 618 q 240 462 240 618 l 589 462 m 622 987 l 460 839 l 302 839 l 429 987 l 622 987 "},"B":{"x_min":75,"x_max":765,"ha":806,"o":"m 75 926 l 439 926 q 649 896 590 926 q 756 703 756 844 q 678 526 756 587 q 533 473 630 488 q 678 438 633 463 q 765 259 765 390 q 581 11 765 54 q 433 0 532 0 l 75 0 l 75 926 m 264 754 l 264 540 l 409 540 q 561 653 561 540 q 511 739 561 718 q 413 754 478 754 l 264 754 m 264 393 l 264 162 l 409 162 q 522 181 487 162 q 570 277 570 208 q 513 378 570 352 q 408 393 480 393 l 264 393 "},"…":{"x_min":56,"x_max":917,"ha":972,"o":"m 165 140 q 269 60 269 140 q 161 -20 269 -20 q 56 57 56 -20 q 165 140 56 140 m 489 140 q 593 60 593 140 q 485 -20 593 -20 q 380 57 380 -20 q 489 140 380 140 m 813 140 q 917 60 917 140 q 809 -20 917 -20 q 704 57 704 -20 q 813 140 704 140 "},"ē":{"x_min":43,"x_max":734.359375,"ha":776,"o":"m 727 318 l 242 318 q 444 125 242 125 q 687 250 601 125 l 694 250 l 694 95 q 596 18 644 42 q 407 -23 514 -23 q 152 69 245 -23 q 43 383 43 179 q 129 671 43 567 q 403 784 223 784 q 656 677 571 784 q 734 408 734 580 q 727 318 734 366 m 589 462 q 556 551 578 520 q 408 618 510 618 q 240 462 240 618 l 589 462 m 589 964 l 589 862 l 211 862 l 211 964 l 589 964 "},"H":{"x_min":75,"x_max":799,"ha":874,"o":"m 272 572 l 602 572 l 602 926 l 799 926 l 799 0 l 602 0 l 602 377 l 272 377 l 272 0 l 75 0 l 75 926 l 272 926 l 272 572 "},"î":{"x_min":-24.625,"x_max":375.96875,"ha":350,"o":"m 71 0 l 71 760 q 169 748 124 748 q 279 760 214 748 l 279 0 l 71 0 m 76 987 l 274 987 l 375 839 l 235 839 l 175 917 l 115 839 l -24 839 l 76 987 "},"−":{"x_min":68,"x_max":729,"ha":797,"o":"m 68 406 l 68 540 l 729 540 l 729 406 l 68 406 "},"≠":{"x_min":46,"x_max":648,"ha":695,"o":"m 363 653 l 438 802 l 552 743 l 506 653 l 648 653 l 648 491 l 432 491 l 386 398 l 648 398 l 648 236 l 312 236 l 244 103 l 131 161 l 168 236 l 46 236 l 46 398 l 242 398 l 290 491 l 46 491 l 46 653 l 363 653 "},"¥":{"x_min":6.9375,"x_max":719.0625,"ha":796,"o":"m 463 205 l 463 0 l 266 0 l 266 205 l 70 205 l 70 295 l 266 295 l 266 334 l 249 372 l 70 372 l 70 462 l 210 462 l 6 926 l 231 926 l 363 490 l 492 926 l 719 926 l 516 462 l 656 462 l 656 372 l 477 372 l 463 338 l 463 295 l 656 295 l 656 205 l 463 205 "},"U":{"x_min":75,"x_max":785,"ha":860,"o":"m 75 927 l 272 927 l 272 396 q 299 230 272 275 q 428 167 337 167 q 572 251 539 167 q 588 401 588 291 l 588 927 l 785 927 l 785 401 q 770 200 785 248 q 429 -20 705 -20 q 206 38 295 -20 q 83 229 107 102 q 75 387 75 275 l 75 927 "},"Ñ":{"x_min":75,"x_max":828,"ha":903,"o":"m 828 926 l 828 0 l 592 0 l 346 490 q 257 735 313 556 q 257 470 257 576 l 257 0 l 75 0 l 75 926 l 349 926 l 558 492 q 659 200 606 393 q 639 512 639 391 l 639 926 l 828 926 m 537 1128 l 638 1128 q 615 1046 628 1068 q 523 998 586 998 q 423 1021 493 998 q 394 1028 406 1028 q 364 1001 372 1028 l 263 1001 q 289 1085 271 1059 q 380 1132 320 1132 q 476 1108 416 1132 q 508 1102 494 1102 q 537 1128 531 1102 "},"F":{"x_min":75,"x_max":678.21875,"ha":725,"o":"m 75 926 l 678 926 l 678 741 l 272 741 l 272 535 l 678 535 l 678 359 l 272 359 l 272 0 l 75 0 l 75 926 "},"ā":{"x_min":47,"x_max":681,"ha":751,"o":"m 681 0 l 507 0 l 507 113 q 276 -23 440 -23 q 114 32 177 -23 q 47 186 47 89 q 191 387 47 328 q 384 439 255 414 q 497 529 497 462 q 450 597 497 573 q 365 617 412 617 q 80 479 196 617 l 80 664 q 197 741 141 717 q 395 783 291 783 q 631 692 557 783 q 681 484 681 631 l 681 0 m 500 364 q 359 306 472 338 q 236 200 236 271 q 264 136 236 159 q 334 113 292 113 q 481 214 441 113 q 500 364 500 262 m 576 964 l 576 862 l 198 862 l 198 964 l 576 964 "},"ă":{"x_min":47,"x_max":681,"ha":751,"o":"m 681 0 l 507 0 l 507 113 q 276 -23 440 -23 q 114 32 177 -23 q 47 186 47 89 q 191 387 47 328 q 384 439 255 414 q 497 529 497 462 q 450 597 497 573 q 365 617 412 617 q 80 479 196 617 l 80 664 q 197 741 141 717 q 395 783 291 783 q 632 692 558 783 q 681 484 681 631 l 681 0 m 500 364 q 359 306 472 338 q 236 200 236 271 q 264 136 236 159 q 334 113 292 113 q 481 214 441 113 q 500 364 500 262 m 574 990 q 546 904 566 935 q 388 835 502 835 q 259 870 302 835 q 201 990 213 907 l 310 990 q 386 931 327 931 q 464 990 447 931 l 574 990 "},"*":{"x_min":183.3125,"x_max":614.984375,"ha":799,"o":"m 342 926 l 459 926 l 459 790 l 570 844 l 614 727 l 490 691 l 576 597 l 477 517 l 407 627 l 338 510 l 234 579 l 316 681 l 183 710 l 213 832 l 342 782 l 342 926 "},"†":{"x_min":51.046875,"x_max":745.984375,"ha":798,"o":"m 484 966 l 484 675 l 745 675 l 745 503 l 491 503 l 491 -180 l 304 -180 l 304 503 l 51 503 l 51 675 l 310 675 l 310 966 l 484 966 "},"°":{"x_min":170,"x_max":628,"ha":797,"o":"m 401 950 q 561 886 494 950 q 628 729 628 822 q 560 573 628 636 q 399 510 493 510 q 238 571 304 510 q 170 729 170 635 q 239 888 170 824 q 401 950 306 950 m 399 850 q 313 815 348 850 q 279 729 279 780 q 313 644 279 679 q 398 610 347 610 q 482 645 448 610 q 517 730 517 680 q 482 814 517 779 q 399 850 448 850 "},"å":{"x_min":47,"x_max":681,"ha":751,"o":"m 681 0 l 507 0 l 507 113 q 276 -23 439 -23 q 114 32 177 -23 q 47 186 47 89 q 191 387 47 328 q 383 439 255 414 q 497 529 497 462 q 450 597 497 573 q 364 617 412 617 q 80 479 196 617 l 80 664 q 197 741 141 717 q 395 783 291 783 q 631 692 557 783 q 681 484 681 631 l 681 0 m 500 364 q 359 306 472 338 q 236 200 236 271 q 264 136 236 159 q 334 113 292 113 q 481 214 441 113 q 500 364 500 262 m 392 1091 q 485 1053 448 1091 q 522 959 522 1015 q 484 869 522 906 q 392 832 446 832 q 300 869 337 832 q 263 961 263 906 q 300 1053 263 1016 q 392 1091 337 1091 m 392 1017 q 353 1000 369 1017 q 337 961 337 984 q 353 922 337 938 q 392 906 369 906 q 431 921 415 906 q 448 960 448 937 q 432 1000 448 984 q 392 1017 416 1017 "},"0":{"x_min":41,"x_max":754,"ha":796,"o":"m 397 947 q 733 705 670 947 q 754 502 754 627 q 395 -20 754 -20 q 41 486 41 -20 q 110 811 41 702 q 397 947 196 947 m 402 748 q 221 462 221 748 q 395 152 221 152 q 572 475 572 152 q 545 657 572 597 q 402 748 506 748 "},"ō":{"x_min":42,"x_max":764.890625,"ha":808,"o":"m 404 782 q 764 393 764 782 q 717 159 764 261 q 397 -23 632 -23 q 144 70 229 -23 q 42 392 42 181 q 404 782 42 782 m 407 587 q 233 371 233 587 q 404 142 233 142 q 575 382 575 142 q 407 587 575 587 m 592 964 l 592 862 l 214 862 l 214 964 l 592 964 "},"":{"x_min":45,"x_max":892.34375,"ha":926,"o":"m 666 960 q 613 794 666 861 q 462 722 556 722 q 514 882 462 820 q 666 960 569 948 m 865 635 q 754 441 754 549 q 892 234 754 294 q 797 59 848 126 q 658 -38 722 -38 q 569 -11 625 -38 q 497 4 535 4 q 397 -15 443 4 q 312 -39 340 -39 q 161 74 237 -39 q 45 429 45 247 q 127 656 45 566 q 303 730 194 730 q 420 703 346 730 q 478 689 458 689 q 566 711 503 689 q 664 733 630 733 q 865 635 793 733 "},"”":{"x_min":58.296875,"x_max":397,"ha":451,"o":"m 74 927 l 212 927 l 212 907 q 165 647 212 763 l 58 647 q 80 833 80 714 q 74 927 80 875 m 259 927 l 397 927 l 397 907 q 350 647 397 763 l 243 647 q 265 833 265 714 q 259 927 265 875 "},"Ķ":{"x_min":75,"x_max":808.359375,"ha":827,"o":"m 75 926 l 276 926 l 276 522 l 555 926 l 797 926 l 457 465 l 808 0 l 565 0 l 276 416 l 276 0 l 75 0 l 75 926 m 363 -64 l 507 -64 l 416 -231 l 307 -231 l 363 -64 "},"ö":{"x_min":42,"x_max":764.890625,"ha":808,"o":"m 404 782 q 764 393 764 782 q 717 159 764 261 q 397 -23 632 -23 q 144 70 229 -23 q 42 392 42 181 q 404 782 42 782 m 407 587 q 233 371 233 587 q 404 142 233 142 q 575 382 575 142 q 407 587 575 587 m 527 988 q 612 913 612 988 q 526 837 612 837 q 440 913 440 837 q 527 988 440 988 m 281 988 q 366 913 366 988 q 280 837 366 837 q 194 913 194 837 q 281 988 194 988 "},"Ļ":{"x_min":75,"x_max":612.4375,"ha":641,"o":"m 272 185 l 612 185 l 612 0 l 75 0 l 75 925 l 272 925 l 272 185 m 295 -64 l 438 -64 l 347 -231 l 239 -231 l 295 -64 "},"Õ":{"x_min":37,"x_max":844,"ha":882,"o":"m 442 947 q 844 488 844 947 q 779 175 844 298 q 436 -20 677 -20 q 124 131 227 -20 q 37 478 37 259 q 442 947 37 947 m 442 748 q 232 463 232 748 q 439 160 232 160 q 607 266 553 160 q 649 476 649 348 q 442 748 649 748 m 532 1128 l 633 1128 q 610 1046 623 1068 q 518 998 581 998 q 418 1022 488 998 q 389 1029 401 1029 q 359 1002 367 1029 l 258 1002 q 284 1086 266 1060 q 375 1133 315 1133 q 471 1108 411 1133 q 503 1102 489 1102 q 532 1128 526 1102 "},"ć":{"x_min":43,"x_max":648.21875,"ha":704,"o":"m 648 673 l 648 466 l 640 466 q 564 546 605 521 q 427 587 501 587 q 242 368 242 587 q 286 208 242 266 q 435 142 336 142 q 642 276 570 142 l 648 276 q 648 175 648 214 q 648 95 648 152 q 390 -23 556 -23 q 148 71 234 -23 q 43 392 43 187 q 129 671 43 567 q 393 783 221 783 q 648 673 547 783 m 602 987 l 440 839 l 282 839 l 409 987 l 602 987 "},"þ":{"x_min":71,"x_max":790,"ha":832,"o":"m 71 -180 l 71 966 l 263 966 l 263 616 q 333 726 290 690 q 507 784 402 784 q 731 663 658 784 q 790 405 790 566 q 730 126 790 236 q 493 -23 649 -23 q 279 117 343 -23 l 279 -180 l 71 -180 m 428 587 q 297 524 341 587 q 260 381 260 471 q 424 154 260 154 q 554 226 510 154 q 591 378 591 286 q 428 587 591 587 "},"]":{"x_min":36.21875,"x_max":329,"ha":421,"o":"m 329 -180 l 36 -180 l 36 -64 l 161 -64 l 161 849 l 36 849 l 36 966 l 329 966 l 329 -180 "},"8":{"x_min":43,"x_max":754,"ha":797,"o":"m 534 477 q 728 365 678 456 q 754 256 754 317 q 640 42 754 115 q 395 -20 543 -20 q 74 129 158 -20 q 43 253 43 186 q 144 440 43 381 q 265 477 188 466 l 265 483 q 144 525 187 496 q 63 697 63 580 q 164 894 63 831 q 390 947 248 947 q 672 859 582 947 q 740 694 740 794 q 650 521 740 577 q 534 483 609 495 l 534 477 m 403 777 q 243 662 243 777 q 399 547 243 547 q 506 572 463 547 q 557 661 557 601 q 403 777 557 777 m 401 399 q 223 268 223 399 q 400 140 223 140 q 572 268 572 140 q 401 399 572 399 "},"R":{"x_min":75,"x_max":790.96875,"ha":805,"o":"m 75 926 l 430 926 q 632 895 567 926 q 753 674 753 838 q 705 508 753 575 q 481 406 644 423 l 790 0 l 547 0 l 272 391 l 272 0 l 75 0 l 75 926 m 272 750 l 272 514 l 395 514 q 558 638 558 514 q 512 733 558 708 q 400 750 482 750 l 272 750 "},"ť":{"x_min":18,"x_max":607.8125,"ha":633,"o":"m 342 753 l 599 753 l 599 568 l 335 568 l 335 314 q 349 200 335 234 q 436 142 371 142 q 579 219 514 142 l 579 65 q 368 -23 493 -23 q 154 115 193 -23 q 139 328 139 179 q 139 564 139 449 l 18 564 l 18 696 q 235 953 181 730 l 342 953 l 342 753 m 464 1050 l 607 1050 l 516 837 l 408 837 l 464 1050 "},"Ľ":{"x_min":75,"x_max":612.4375,"ha":641,"o":"m 272 185 l 612 185 l 612 0 l 75 0 l 75 925 l 272 925 l 272 185 m 413 926 l 557 926 l 466 713 l 358 713 l 413 926 "},"Ż":{"x_min":47,"x_max":668,"ha":715,"o":"m 55 926 l 667 926 l 667 707 l 284 176 l 668 176 l 668 0 l 47 0 l 47 184 l 451 741 l 55 741 l 55 926 m 364 1146 q 451 1069 451 1146 q 363 991 451 991 q 301 1011 325 991 q 275 1069 275 1033 q 364 1146 275 1146 "},"o":{"x_min":42,"x_max":764.890625,"ha":808,"o":"m 404 782 q 764 393 764 782 q 717 159 764 261 q 397 -23 632 -23 q 144 70 229 -23 q 42 392 42 181 q 404 782 42 782 m 407 587 q 233 371 233 587 q 404 142 233 142 q 575 382 575 142 q 407 587 575 587 "},"5":{"x_min":94.828125,"x_max":730,"ha":796,"o":"m 116 927 l 687 927 l 687 742 l 278 742 l 278 560 q 438 587 366 587 q 648 515 569 587 q 730 311 730 441 q 692 157 730 230 q 379 -20 602 -20 q 223 7 286 -20 q 94 99 165 32 q 105 177 105 123 q 100 264 105 209 l 109 268 q 187 187 145 213 q 348 142 260 142 q 479 181 428 142 q 536 301 536 224 q 341 449 536 449 q 116 410 244 449 l 116 927 "},"õ":{"x_min":42,"x_max":764.890625,"ha":808,"o":"m 404 782 q 764 393 764 782 q 717 159 764 261 q 397 -23 632 -23 q 144 70 229 -23 q 42 392 42 181 q 404 782 42 782 m 407 587 q 233 371 233 587 q 404 142 233 142 q 575 382 575 142 q 407 587 575 587 m 495 974 l 596 974 q 573 892 587 914 q 482 843 543 843 q 382 866 452 843 q 353 873 365 873 q 323 846 331 873 l 222 846 q 248 931 230 904 q 339 978 279 978 q 435 954 375 978 q 467 948 453 948 q 495 974 489 948 "},",":{"x_min":50.4375,"x_max":251,"ha":329,"o":"m 83 148 l 251 148 q 180 -187 251 -68 l 50 -187 q 83 83 83 -103 q 83 148 83 109 "},"d":{"x_min":43,"x_max":761,"ha":832,"o":"m 761 966 l 761 0 l 572 0 l 572 130 q 492 24 534 55 q 341 -23 427 -23 q 134 69 216 -23 q 61 226 86 124 q 43 380 43 300 q 94 628 43 514 q 215 753 132 712 q 341 783 273 783 q 552 653 482 783 l 552 966 l 761 966 m 409 586 q 278 518 322 586 q 242 370 242 461 q 401 154 242 154 q 535 226 489 154 q 575 379 575 287 q 409 586 575 586 "},"\"":{"x_min":56.28125,"x_max":516.765625,"ha":573,"o":"m 222 554 l 89 554 l 56 927 l 256 927 l 222 554 m 482 554 l 349 554 l 316 927 l 516 927 l 482 554 "},"˙":{"x_min":260,"x_max":436,"ha":695,"o":"m 350 992 q 436 914 436 992 q 348 837 436 837 q 286 857 310 837 q 260 915 260 878 q 350 992 260 992 "},"ê":{"x_min":43,"x_max":734.359375,"ha":776,"o":"m 727 318 l 242 318 q 444 125 242 125 q 687 250 602 125 l 694 250 l 694 95 q 596 18 644 42 q 407 -23 514 -23 q 152 69 245 -23 q 43 383 43 179 q 129 671 43 567 q 403 784 223 784 q 656 677 571 784 q 734 408 734 580 q 727 318 734 366 m 589 462 q 557 551 579 520 q 408 618 511 618 q 240 462 240 618 l 589 462 m 300 987 l 504 987 l 613 839 l 471 839 l 402 917 l 332 839 l 191 839 l 300 987 "},"„":{"x_min":58.296875,"x_max":397,"ha":451,"o":"m 74 136 l 212 136 l 212 116 q 165 -144 212 -27 l 58 -144 q 80 42 80 -76 q 74 136 80 84 m 259 136 l 397 136 l 397 116 q 350 -144 397 -27 l 243 -144 q 265 42 265 -76 q 259 136 265 84 "},"ľ":{"x_min":73,"x_max":535.984375,"ha":537,"o":"m 73 0 l 73 966 l 281 966 l 281 0 l 73 0 m 392 966 l 535 966 l 445 753 l 336 753 l 392 966 "},"Â":{"x_min":22.375,"x_max":884.328125,"ha":905,"o":"m 290 233 l 219 0 l 22 0 l 307 926 l 600 926 l 884 0 l 682 0 l 612 233 l 290 233 m 567 409 l 450 793 l 334 409 l 567 409 m 351 1135 l 555 1135 l 664 996 l 522 996 l 453 1065 l 383 996 l 242 996 l 351 1135 "},"Į":{"x_min":75,"x_max":297.515625,"ha":347,"o":"m 272 0 q 208 -89 208 -44 q 255 -136 208 -136 q 297 -128 270 -136 l 297 -194 q 206 -213 251 -213 q 97 -123 97 -213 q 190 0 97 -44 l 75 0 l 75 926 l 272 926 l 272 0 "},"ė":{"x_min":43,"x_max":734.359375,"ha":776,"o":"m 727 318 l 242 318 q 444 125 242 125 q 687 250 602 125 l 694 250 l 694 95 q 596 18 644 42 q 407 -23 514 -23 q 152 69 245 -23 q 43 383 43 179 q 129 671 43 567 q 403 784 223 784 q 656 677 571 784 q 734 408 734 580 q 727 318 734 366 m 589 462 q 557 551 579 520 q 408 618 510 618 q 240 462 240 618 l 589 462 m 404 993 q 490 915 490 993 q 402 838 490 838 q 340 858 364 838 q 314 916 314 879 q 404 993 314 993 "},"Ţ":{"x_min":38,"x_max":763,"ha":801,"o":"m 38 926 l 763 926 l 763 731 l 500 731 l 500 0 l 303 0 l 303 731 l 38 731 l 38 926 m 334 -64 l 478 -64 l 387 -231 l 279 -231 l 334 -64 "},"Í":{"x_min":75,"x_max":409.671875,"ha":347,"o":"m 75 926 l 272 926 l 272 0 l 75 0 l 75 926 m 409 1135 l 247 996 l 89 996 l 217 1135 l 409 1135 "},"´":{"x_min":254.3125,"x_max":574.40625,"ha":694,"o":"m 574 987 l 412 839 l 254 839 l 381 987 l 574 987 "},"Ú":{"x_min":75,"x_max":785,"ha":860,"o":"m 75 927 l 272 927 l 272 396 q 299 230 272 275 q 428 167 337 167 q 572 251 539 167 q 588 401 588 291 l 588 927 l 785 927 l 785 401 q 770 200 785 248 q 429 -20 705 -20 q 206 38 295 -20 q 83 229 107 102 q 75 387 75 275 l 75 927 m 650 1135 l 488 996 l 329 996 l 457 1135 l 650 1135 "},"Ý":{"x_min":16.828125,"x_max":821.453125,"ha":839,"o":"m 821 926 l 519 339 l 519 0 l 322 0 l 322 335 l 16 926 l 241 926 l 361 670 q 419 490 401 584 q 476 669 439 590 l 594 926 l 821 926 m 643 1135 l 481 996 l 324 996 l 451 1135 l 643 1135 "},"ą":{"x_min":47,"x_max":705.515625,"ha":750,"o":"m 598 0 l 507 0 l 507 113 q 276 -23 440 -23 q 114 32 177 -23 q 47 186 47 89 q 192 387 47 328 q 384 439 257 414 q 497 529 497 462 q 450 597 497 573 q 365 617 412 617 q 80 479 196 617 l 80 664 q 197 741 141 717 q 395 783 291 783 q 631 692 557 783 q 681 484 681 631 l 681 0 q 616 -86 616 -42 q 663 -133 616 -133 q 705 -125 678 -133 l 705 -190 q 614 -209 657 -209 q 505 -121 505 -209 q 598 0 505 -44 m 500 364 q 359 305 469 336 q 236 200 236 271 q 264 136 236 159 q 334 113 292 113 q 481 214 441 113 q 500 364 500 262 "},"Ω":{"x_min":39,"x_max":886,"ha":925,"o":"m 39 0 l 39 162 l 228 162 q 109 265 148 212 q 39 508 39 360 q 150 813 39 690 q 462 948 272 948 q 774 813 652 948 q 886 508 886 690 q 842 307 886 388 q 697 162 798 225 l 886 162 l 886 0 l 512 0 l 512 143 q 628 242 589 188 q 697 488 697 337 q 565 757 697 680 q 462 786 516 786 q 285 689 351 786 q 228 488 228 605 q 415 143 228 248 l 415 0 l 39 0 "},"Ö":{"x_min":37,"x_max":844,"ha":882,"o":"m 442 947 q 844 488 844 947 q 779 175 844 298 q 436 -20 677 -20 q 124 131 227 -20 q 37 478 37 259 q 442 947 37 947 m 442 748 q 232 463 232 748 q 439 160 232 160 q 607 266 553 160 q 649 476 649 348 q 442 748 649 748 m 569 1142 q 654 1067 654 1142 q 568 991 654 991 q 507 1010 531 991 q 482 1067 482 1031 q 569 1142 482 1142 m 314 1142 q 399 1067 399 1142 q 313 991 399 991 q 252 1010 276 991 q 227 1067 227 1031 q 314 1142 227 1142 "},"z":{"x_min":45,"x_max":621,"ha":666,"o":"m 51 760 l 621 760 l 621 604 l 291 170 l 621 170 l 621 0 l 45 0 l 45 159 l 358 575 l 51 575 l 51 760 "},"™":{"x_min":19,"x_max":1129,"ha":1170,"o":"m 19 926 l 474 926 l 474 808 l 313 808 l 313 398 l 182 398 l 182 808 l 19 808 l 19 926 m 1129 926 l 1129 398 l 1004 398 l 1004 765 q 976 656 989 696 l 892 398 l 766 398 l 683 654 q 659 763 669 697 l 659 398 l 534 398 l 534 926 l 726 926 l 811 641 q 832 533 821 604 q 852 643 841 605 l 934 926 l 1129 926 "},"Ř":{"x_min":75,"x_max":790.96875,"ha":805,"o":"m 75 926 l 430 926 q 632 895 567 926 q 753 674 753 838 q 705 508 753 575 q 481 406 644 423 l 790 0 l 547 0 l 272 391 l 272 0 l 75 0 l 75 926 m 272 750 l 272 514 l 395 514 q 558 638 558 514 q 512 733 558 708 q 400 750 482 750 l 272 750 m 482 996 l 278 996 l 169 1135 l 311 1135 l 381 1065 l 450 1135 l 591 1135 l 482 996 "},"ã":{"x_min":47,"x_max":681,"ha":751,"o":"m 681 0 l 507 0 l 507 113 q 276 -23 440 -23 q 114 32 177 -23 q 47 186 47 89 q 191 387 47 328 q 384 439 255 414 q 497 529 497 462 q 450 597 497 573 q 365 617 412 617 q 80 479 196 617 l 80 664 q 197 741 141 717 q 395 783 291 783 q 632 692 558 783 q 681 484 681 631 l 681 0 m 500 364 q 359 306 472 338 q 236 200 236 271 q 264 136 236 159 q 334 113 292 113 q 481 214 441 113 q 500 364 500 262 m 475 973 l 577 973 q 553 891 567 913 q 462 842 524 842 q 362 866 432 842 q 333 873 344 873 q 303 846 310 873 l 202 846 q 228 931 210 904 q 319 978 259 978 q 415 953 354 978 q 447 947 433 947 q 475 973 469 947 "},"Ň":{"x_min":75,"x_max":828,"ha":903,"o":"m 828 926 l 828 0 l 592 0 l 346 490 q 257 735 313 556 q 257 470 257 576 l 257 0 l 75 0 l 75 926 l 349 926 l 558 492 q 659 200 606 393 q 639 512 639 391 l 639 926 l 828 926 m 552 996 l 348 996 l 239 1135 l 381 1135 l 451 1065 l 520 1135 l 662 1135 l 552 996 "},"æ":{"x_min":47,"x_max":1163,"ha":1208,"o":"m 1163 318 l 681 318 q 880 132 681 132 q 1125 246 1026 132 l 1130 246 l 1130 95 q 1020 13 1072 36 q 854 -23 941 -23 q 634 46 723 -23 q 556 152 590 80 q 405 -1 512 40 q 287 -23 348 -23 q 117 30 183 -23 q 47 191 47 88 q 129 358 47 299 q 313 425 189 401 q 452 459 429 448 q 497 522 497 480 q 446 590 497 567 q 356 607 408 607 q 81 478 200 607 l 81 663 q 183 742 135 717 q 367 784 265 784 q 546 737 478 784 q 604 662 577 714 q 689 750 646 726 q 839 784 749 784 q 1037 726 957 784 q 1163 398 1163 637 q 1163 318 1163 366 m 1025 469 q 993 557 1018 525 q 851 618 945 618 q 705 556 752 618 q 672 469 683 527 l 1025 469 m 502 361 q 364 310 457 335 q 236 203 236 275 q 266 138 236 161 q 338 117 294 117 q 489 230 451 117 q 502 361 502 269 "},"É":{"x_min":75,"x_max":679.71875,"ha":750,"o":"m 75 926 l 679 926 l 679 741 l 264 741 l 264 550 l 679 550 l 679 374 l 264 374 l 264 176 l 679 176 l 679 0 l 75 0 l 75 926 m 592 1135 l 430 996 l 272 996 l 400 1135 l 592 1135 "},"~":{"x_min":124.78125,"x_max":800.921875,"ha":926,"o":"m 223 778 l 124 843 q 135 867 128 850 q 170 939 158 918 q 223 1000 192 975 q 335 1037 269 1037 q 479 1000 381 1037 q 599 968 568 968 q 698 1039 656 968 l 800 979 q 758 899 774 924 q 697 833 731 857 q 579 794 642 794 q 437 831 543 794 q 325 863 350 863 q 263 839 290 863 q 223 778 248 826 "},"³":{"x_min":56.90625,"x_max":477,"ha":535,"o":"m 63 926 l 456 926 l 456 810 l 277 695 q 316 698 300 698 q 431 659 388 698 q 477 547 477 618 q 388 392 477 445 q 255 359 332 359 q 56 432 141 359 q 64 475 64 451 q 64 542 64 488 l 77 542 q 236 463 139 463 q 306 484 278 463 q 338 548 338 508 q 234 626 338 626 q 121 606 188 626 l 121 704 l 279 812 l 63 812 l 63 926 "},"¡":{"x_min":75,"x_max":288,"ha":337,"o":"m 182 782 q 288 704 288 782 q 178 623 288 623 q 75 702 75 623 q 182 782 75 782 m 99 525 l 260 525 l 260 190 q 260 87 260 115 l 260 20 q 260 -97 260 -42 q 239 -169 260 -152 q 174 -184 222 -184 q 114 -167 130 -184 q 99 -99 99 -150 l 99 -23 q 99 33 99 -2 q 99 91 99 74 q 99 190 99 102 l 99 525 "},"[":{"x_min":92,"x_max":385.46875,"ha":421,"o":"m 92 966 l 385 966 l 385 850 l 260 850 l 260 -63 l 385 -63 l 385 -180 l 92 -180 l 92 966 "},"%":{"x_min":37,"x_max":1143,"ha":1181,"o":"m 844 926 l 921 871 l 323 0 l 245 50 l 844 926 m 250 933 q 464 680 464 933 q 391 469 464 541 q 242 415 337 415 q 37 684 37 415 q 250 933 37 933 m 249 818 q 149 679 149 818 q 248 519 149 519 q 349 678 349 519 q 249 818 349 818 m 927 507 q 1143 249 1143 507 q 1094 65 1143 132 q 928 -12 1039 -12 q 716 260 716 -12 q 927 507 716 507 m 928 391 q 829 257 829 391 q 928 93 829 93 q 1028 245 1028 93 q 928 391 1028 391 "},"P":{"x_min":75,"x_max":772,"ha":800,"o":"m 75 926 l 432 926 q 541 921 510 926 q 644 888 598 914 q 772 633 772 815 q 723 442 772 528 q 526 304 662 333 q 370 294 475 294 l 272 294 l 272 0 l 75 0 l 75 926 m 272 741 l 272 462 l 377 462 q 509 485 467 462 q 577 610 577 523 q 525 717 577 684 q 385 741 487 741 l 272 741 "},"∏":{"x_min":56,"x_max":964,"ha":1020,"o":"m 56 1043 l 963 1043 l 963 881 l 849 881 l 849 -185 l 964 -185 l 964 -347 l 556 -347 l 556 -185 l 666 -185 l 666 881 l 352 881 l 352 -185 l 462 -185 l 462 -347 l 56 -347 l 56 -185 l 171 -185 l 171 881 l 56 881 l 56 1043 "},"_":{"x_min":0,"x_max":694,"ha":694,"o":"m 0 -64 l 694 -64 l 694 -226 l 0 -226 l 0 -64 "},"Ŕ":{"x_min":75,"x_max":790.96875,"ha":805,"o":"m 75 926 l 430 926 q 632 895 567 926 q 753 674 753 838 q 705 508 753 575 q 481 406 644 423 l 790 0 l 547 0 l 272 391 l 272 0 l 75 0 l 75 926 m 272 750 l 272 514 l 395 514 q 558 638 558 514 q 512 733 558 708 q 400 750 482 750 l 272 750 m 592 1135 l 430 996 l 272 996 l 400 1135 l 592 1135 "},"ñ":{"x_min":71,"x_max":763,"ha":833,"o":"m 71 0 l 71 761 l 267 761 l 267 580 q 333 707 296 666 q 524 784 402 784 q 680 735 618 784 q 758 594 745 685 q 763 458 763 567 l 763 0 l 555 0 l 555 390 q 537 536 555 503 q 436 587 509 587 q 299 501 341 587 q 279 365 279 460 l 279 0 l 71 0 m 501 973 l 602 973 q 579 891 592 913 q 487 842 549 842 q 387 866 457 842 q 358 873 370 873 q 328 846 336 873 l 227 846 q 253 931 235 904 q 344 978 284 978 q 440 953 380 978 q 472 947 458 947 q 501 973 495 947 "},"‚":{"x_min":58.296875,"x_max":212,"ha":266,"o":"m 74 136 l 212 136 l 212 116 q 165 -144 212 -27 l 58 -144 q 80 42 80 -76 q 74 136 80 84 "},"Æ":{"x_min":14.875,"x_max":1268.609375,"ha":1338,"o":"m 526 926 l 1268 926 l 1268 741 l 840 741 l 840 555 l 1268 555 l 1268 379 l 840 379 l 840 176 l 1268 176 l 1268 0 l 651 0 l 651 253 l 358 253 l 219 0 l 14 0 l 526 926 m 651 429 l 651 793 l 448 429 l 651 429 "},"₣":{"x_min":75,"x_max":1124.9375,"ha":1136,"o":"m 75 926 l 678 926 l 678 741 l 272 741 l 272 535 l 678 535 l 678 359 l 272 359 l 272 0 l 75 0 l 75 926 m 773 0 l 773 533 l 912 533 l 912 404 q 1043 549 941 549 q 1124 517 1088 549 l 1124 363 q 1111 370 1119 364 q 1040 400 1073 400 q 926 280 946 400 q 918 143 918 231 q 918 0 918 99 l 773 0 "},"ğ":{"x_min":42,"x_max":758,"ha":829,"o":"m 758 761 l 758 191 q 753 66 758 102 q 394 -185 726 -185 q 109 -105 223 -185 l 109 52 q 371 -38 222 -38 q 542 37 496 -38 q 571 178 571 83 l 571 210 q 503 111 541 140 q 343 63 442 63 q 124 157 207 63 q 42 426 42 251 q 204 754 42 675 q 340 784 263 784 q 562 638 511 784 l 562 761 l 758 761 m 403 595 q 279 538 321 595 q 241 403 241 487 q 277 270 241 321 q 397 213 317 213 q 524 274 480 213 q 562 414 562 327 q 403 595 562 595 m 624 991 q 595 905 615 936 q 437 836 551 836 q 308 871 351 836 q 249 991 262 908 l 359 991 q 435 932 376 932 q 513 991 496 932 l 624 991 "},"Ū":{"x_min":75,"x_max":785,"ha":860,"o":"m 75 927 l 272 927 l 272 396 q 299 230 272 275 q 428 167 337 167 q 572 251 539 167 q 588 401 588 291 l 588 927 l 785 927 l 785 401 q 770 200 785 248 q 429 -20 705 -20 q 206 38 295 -20 q 83 229 107 102 q 75 387 75 275 l 75 927 m 619 1112 l 619 1010 l 241 1010 l 241 1112 l 619 1112 "},"ª":{"x_min":-1,"x_max":346,"ha":356,"o":"m 322 555 l 239 555 l 239 570 q 241 586 239 575 q 242 602 242 597 q 241 612 242 605 q 127 544 199 544 q 52 570 83 544 q 22 641 22 597 q 75 729 22 700 q 181 761 105 745 q 235 803 235 772 q 172 845 235 845 q 37 781 92 845 l 37 869 q 186 926 101 926 q 298 882 263 926 q 322 784 322 854 l 322 555 m 235 727 q 170 699 221 713 q 114 649 114 683 q 159 608 114 608 q 226 656 208 608 q 235 727 235 679 m 346 469 l 346 404 l -1 404 l -1 469 l 346 469 "},"Œ":{"x_min":37,"x_max":1272,"ha":1343,"o":"m 668 926 l 1272 926 l 1272 741 l 854 741 l 854 550 l 1272 550 l 1272 374 l 854 374 l 854 176 l 1272 176 l 1272 0 l 668 0 l 668 132 q 586 32 631 63 q 405 -20 512 -20 q 173 71 261 -20 q 78 230 110 136 q 37 490 37 355 q 119 810 37 692 q 408 946 214 946 q 562 914 502 946 q 668 800 626 880 l 668 926 m 459 747 q 232 465 232 747 q 450 160 232 160 q 630 255 572 160 q 678 466 678 334 q 459 747 678 747 "},"Ą":{"x_min":22.015625,"x_max":909.515625,"ha":906,"o":"m 884 0 q 820 -89 820 -44 q 867 -136 820 -136 q 909 -128 883 -136 l 909 -194 q 818 -213 862 -213 q 709 -123 709 -213 q 802 0 709 -44 l 682 0 l 612 233 l 291 233 l 219 0 l 22 0 l 306 926 l 600 926 l 884 0 m 567 409 l 450 793 l 334 409 l 567 409 "},"T":{"x_min":38,"x_max":763,"ha":801,"o":"m 38 926 l 763 926 l 763 731 l 500 731 l 500 0 l 303 0 l 303 731 l 38 731 l 38 926 "},"š":{"x_min":41,"x_max":598,"ha":637,"o":"m 570 707 l 570 515 q 486 576 525 557 q 353 606 422 606 q 273 589 307 606 q 230 525 230 568 q 346 449 230 479 q 522 389 494 410 q 598 229 598 334 q 511 40 598 107 q 309 -23 433 -23 q 66 53 175 -23 l 66 229 q 152 166 113 186 q 289 134 218 134 q 414 214 414 134 q 383 270 414 251 q 243 306 361 283 q 41 531 41 346 q 130 721 41 654 q 336 783 209 783 q 570 707 466 783 m 430 839 l 226 839 l 117 987 l 258 987 l 328 908 l 398 987 l 539 987 l 430 839 "},"Þ":{"x_min":75,"x_max":772,"ha":800,"o":"m 75 926 l 272 926 l 272 796 l 431 796 q 541 791 509 796 q 644 758 598 784 q 772 503 772 684 q 723 312 772 398 q 526 175 662 204 q 370 165 475 165 l 272 165 l 272 0 l 75 0 l 75 926 m 272 611 l 272 333 l 377 333 q 509 356 467 333 q 577 481 577 394 q 525 587 577 554 q 385 611 487 611 l 272 611 "},"j":{"x_min":-27.078125,"x_max":360,"ha":413,"o":"m 244 977 q 360 894 360 977 q 239 818 360 818 q 117 895 117 818 q 244 977 117 977 m 340 760 l 340 118 q 340 12 340 21 q 319 -88 340 -46 q 126 -180 273 -180 q -27 -152 57 -180 l -27 -9 q 56 -35 12 -35 q 126 9 112 -35 q 135 114 135 35 l 135 760 q 237 744 189 744 q 340 760 286 744 "},"1":{"x_min":85.015625,"x_max":602,"ha":795,"o":"m 602 926 l 602 0 l 399 0 l 399 729 q 353 690 386 712 l 85 510 l 85 687 l 428 926 l 602 926 "},"›":{"x_min":56.28125,"x_max":309.921875,"ha":366,"o":"m 198 168 l 56 168 l 153 397 l 56 629 l 198 629 l 309 397 l 198 168 "},"<":{"x_min":46,"x_max":648,"ha":695,"o":"m 648 846 l 648 667 l 236 463 l 648 258 l 648 81 l 46 388 l 46 540 l 648 846 "},"t":{"x_min":18,"x_max":599,"ha":633,"o":"m 342 753 l 599 753 l 599 568 l 335 568 l 335 314 q 349 200 335 234 q 436 142 371 142 q 579 219 514 142 l 579 65 q 368 -23 493 -23 q 154 115 193 -23 q 139 328 139 179 q 139 564 139 449 l 18 564 l 18 696 q 235 953 181 730 l 342 953 l 342 753 "},"¬":{"x_min":45.84375,"x_max":647,"ha":694,"o":"m 467 0 l 467 208 l 45 208 l 45 370 l 647 370 l 647 0 l 467 0 "},"ù":{"x_min":71,"x_max":750,"ha":820,"o":"m 750 761 l 750 0 l 551 0 l 551 151 q 481 40 521 76 q 310 -23 413 -23 q 76 197 102 -23 q 71 380 71 242 l 71 761 l 279 761 l 279 385 q 291 224 279 259 q 397 162 315 162 q 523 242 490 162 q 542 414 542 290 l 542 761 l 750 761 m 194 987 l 387 987 l 514 839 l 356 839 l 194 987 "},"ï":{"x_min":-22,"x_max":372,"ha":349,"o":"m 70 0 l 70 760 q 169 748 124 748 q 278 760 214 748 l 278 0 l 70 0 m 287 988 q 372 913 372 988 q 286 837 372 837 q 200 913 200 837 q 287 988 200 988 m 65 988 q 150 913 150 988 q 64 837 150 837 q -22 913 -22 837 q 65 988 -22 988 "},"ī":{"x_min":18,"x_max":332,"ha":349,"o":"m 71 0 l 71 760 q 169 748 124 748 q 279 760 214 748 l 279 0 l 71 0 m 332 968 l 332 866 l 18 866 l 18 968 l 332 968 "},"Ò":{"x_min":37,"x_max":844,"ha":882,"o":"m 442 947 q 844 488 844 947 q 779 175 844 298 q 436 -20 677 -20 q 124 131 227 -20 q 37 478 37 259 q 442 947 37 947 m 442 748 q 232 463 232 748 q 439 160 232 160 q 607 266 553 160 q 649 476 649 348 q 442 748 649 748 m 234 1135 l 426 1135 l 554 996 l 396 996 l 234 1135 "},"Ď":{"x_min":75,"x_max":827,"ha":864,"o":"m 75 926 l 393 926 q 544 917 494 926 q 827 504 827 868 q 742 175 827 310 q 576 33 680 75 q 357 0 491 0 l 75 0 l 75 926 m 272 741 l 272 176 l 360 176 q 547 226 489 176 q 632 483 632 301 q 562 694 632 631 q 400 741 510 741 l 272 741 m 509 996 l 305 996 l 196 1135 l 337 1135 l 407 1065 l 476 1135 l 618 1135 l 509 996 "},"&":{"x_min":66,"x_max":895.703125,"ha":913,"o":"m 500 488 l 650 303 q 815 610 721 398 l 815 353 q 736 197 792 279 l 895 0 l 689 0 l 617 88 q 347 -27 509 -27 q 152 37 232 -27 q 66 219 66 107 q 125 381 66 308 q 257 498 163 429 q 198 575 211 556 q 145 730 145 653 q 243 901 145 841 q 421 947 317 947 q 617 875 552 947 q 668 749 668 821 q 500 488 668 623 m 356 391 q 259 252 259 328 q 297 163 259 198 q 390 128 335 128 q 524 187 463 128 l 356 391 m 402 580 q 499 718 499 659 q 416 799 499 799 q 355 773 379 799 q 331 710 331 748 q 402 580 331 659 "},"˝":{"x_min":153.265625,"x_max":674.78125,"ha":694,"o":"m 674 987 l 532 839 l 397 839 l 514 987 l 674 987 m 429 987 l 288 839 l 153 839 l 269 987 l 429 987 "},"I":{"x_min":75,"x_max":272,"ha":347,"o":"m 75 926 l 272 926 l 272 0 l 75 0 l 75 926 "},"G":{"x_min":30,"x_max":766,"ha":813,"o":"m 766 468 l 766 152 q 754 138 762 149 q 677 55 714 85 q 435 -20 581 -20 q 169 81 272 -20 q 30 479 30 219 q 171 852 30 729 q 447 947 280 947 q 605 919 538 947 q 739 830 669 893 l 739 614 l 730 614 q 636 703 684 674 q 471 748 561 748 q 281 661 345 748 q 225 453 225 585 q 272 243 225 324 q 449 142 331 142 q 577 185 523 142 l 577 468 l 766 468 "},"`":{"x_min":120.03125,"x_max":440.125,"ha":694,"o":"m 120 987 l 312 987 l 440 839 l 282 839 l 120 987 "},"·":{"x_min":56,"x_max":269,"ha":325,"o":"m 165 474 q 269 394 269 474 q 161 314 269 314 q 56 391 56 314 q 165 474 56 474 "},"¿":{"x_min":56,"x_max":611.125,"ha":672,"o":"m 392 782 q 498 704 498 782 q 388 623 498 623 q 285 702 285 623 q 392 782 285 782 m 611 143 l 611 -54 q 532 -129 569 -104 q 339 -185 451 -185 q 121 -102 202 -185 q 56 62 56 -36 q 148 256 56 175 l 260 354 q 317 485 317 404 q 317 527 317 491 l 459 527 q 459 447 459 475 q 442 350 459 382 q 375 273 432 330 l 289 187 q 230 85 230 128 q 276 10 230 36 q 366 -11 314 -11 q 543 58 473 -11 q 611 143 567 82 "},"ý":{"x_min":19.671875,"x_max":757.515625,"ha":777,"o":"m 757 760 l 426 -183 l 223 -183 l 305 49 l 19 760 l 233 760 l 339 466 q 404 198 372 377 q 461 466 432 370 l 552 760 l 757 760 m 613 986 l 450 838 l 292 838 l 420 986 l 613 986 "},"º":{"x_min":18,"x_max":365,"ha":383,"o":"m 192 926 q 363 741 363 926 q 188 545 363 545 q 19 741 19 545 q 192 926 19 926 m 192 834 q 109 731 109 834 q 191 622 109 622 q 273 736 273 622 q 192 834 273 834 m 365 469 l 365 404 l 18 404 l 18 469 l 365 469 "},"∞":{"x_min":23,"x_max":903,"ha":926,"o":"m 467 354 q 249 245 365 245 q 77 318 143 245 q 23 471 23 378 q 100 645 23 582 q 248 698 164 698 q 459 589 355 698 q 675 697 555 697 q 856 615 791 697 q 903 472 903 557 q 840 308 903 372 q 677 245 777 245 q 467 354 563 245 m 552 471 q 647 407 600 407 q 696 425 676 407 q 717 471 717 443 q 696 516 717 498 q 647 535 675 535 q 575 499 609 535 q 552 471 563 487 m 373 471 q 278 536 326 536 q 229 517 249 536 q 209 471 209 499 q 229 425 209 443 q 278 407 249 407 q 373 471 331 407 "},"ź":{"x_min":45,"x_max":621,"ha":666,"o":"m 51 760 l 621 760 l 621 604 l 291 170 l 621 170 l 621 0 l 45 0 l 45 159 l 358 575 l 51 575 l 51 760 m 555 987 l 393 839 l 235 839 l 362 987 l 555 987 "},"ű":{"x_min":71,"x_max":750,"ha":820,"o":"m 750 761 l 750 0 l 551 0 l 551 151 q 481 40 521 76 q 310 -23 413 -23 q 76 197 102 -23 q 71 380 71 242 l 71 761 l 279 761 l 279 385 q 291 224 279 259 q 397 162 315 162 q 523 242 490 162 q 542 414 542 290 l 542 761 l 750 761 m 731 987 l 589 839 l 454 839 l 571 987 l 731 987 m 487 987 l 344 839 l 209 839 l 326 987 l 487 987 "},"ń":{"x_min":71,"x_max":763,"ha":833,"o":"m 71 0 l 71 761 l 267 761 l 267 580 q 333 707 296 666 q 524 784 402 784 q 680 735 618 784 q 758 594 745 685 q 763 458 763 567 l 763 0 l 555 0 l 555 390 q 537 536 555 503 q 436 587 509 587 q 299 501 341 587 q 279 365 279 460 l 279 0 l 71 0 m 632 987 l 470 839 l 312 839 l 440 987 l 632 987 "},";":{"x_min":47,"x_max":260,"ha":329,"o":"m 83 148 l 251 148 q 180 -187 251 -69 l 50 -187 q 83 83 83 -103 q 83 148 83 106 m 156 696 q 260 616 260 696 q 152 536 260 536 q 47 613 47 536 q 156 696 47 696 "},"6":{"x_min":60,"x_max":738,"ha":797,"o":"m 229 445 q 315 552 269 523 q 467 594 379 594 q 665 516 592 594 q 738 313 738 439 q 680 115 738 202 q 404 -20 590 -20 q 60 463 60 -20 q 96 726 60 628 q 431 947 178 947 q 695 836 592 947 q 681 747 681 804 q 681 663 681 730 l 674 663 q 598 735 640 712 q 454 771 535 771 q 249 638 297 771 q 227 445 227 577 l 229 445 m 413 439 q 294 400 340 439 q 246 289 246 359 q 303 166 246 208 q 406 135 347 135 q 521 177 478 135 q 564 293 564 220 q 413 439 564 439 "},"n":{"x_min":71,"x_max":763,"ha":833,"o":"m 71 0 l 71 761 l 267 761 l 267 580 q 333 707 296 666 q 524 784 402 784 q 680 735 618 784 q 758 594 745 685 q 763 458 763 567 l 763 0 l 555 0 l 555 390 q 537 536 555 503 q 436 587 509 587 q 299 501 341 587 q 279 365 279 460 l 279 0 l 71 0 "},"ģ":{"x_min":42,"x_max":758,"ha":829,"o":"m 758 761 l 758 191 q 753 66 758 102 q 394 -185 726 -185 q 109 -105 223 -185 l 109 52 q 371 -38 222 -38 q 542 37 496 -38 q 571 178 571 83 l 571 210 q 503 111 541 140 q 343 63 442 63 q 124 157 207 63 q 42 426 42 251 q 204 754 42 675 q 340 784 263 784 q 562 638 511 784 l 562 761 l 758 761 m 403 595 q 279 538 321 595 q 241 403 241 487 q 277 270 241 321 q 397 213 317 213 q 524 274 480 213 q 562 414 562 327 q 403 595 562 595 m 485 838 l 341 838 l 432 1005 l 541 1005 l 485 838 "},"¤":{"x_min":27.578125,"x_max":899.734375,"ha":926,"o":"m 28 190 l 171 334 q 111 524 111 423 q 172 716 111 624 l 27 860 l 125 959 l 270 814 q 464 875 364 875 q 655 815 564 875 l 798 957 l 895 860 l 753 718 q 817 524 817 619 q 756 335 817 427 l 899 191 l 802 93 l 660 236 q 463 174 566 174 q 268 235 367 174 l 125 93 l 28 190 m 466 714 q 331 658 386 714 q 276 523 276 603 q 330 389 276 444 q 464 335 385 335 q 598 390 544 335 q 653 525 653 445 q 598 658 653 603 q 466 714 544 714 "},"∂":{"x_min":12,"x_max":676,"ha":694,"o":"m 76 767 l 99 923 q 553 721 409 889 q 676 374 676 579 q 545 57 676 161 q 334 -12 456 -12 q 69 124 163 -12 q 12 307 12 207 q 93 516 12 431 q 299 601 175 601 q 467 538 402 601 q 76 767 377 737 m 339 450 q 237 407 276 450 q 199 302 199 364 q 236 195 199 238 q 339 150 276 150 q 441 194 401 150 q 480 301 480 237 q 441 407 480 364 q 339 450 402 450 "},"p":{"x_min":71,"x_max":790,"ha":832,"o":"m 71 -180 l 71 761 l 263 761 l 263 626 q 334 725 302 697 q 507 784 399 784 q 730 664 658 784 q 790 405 790 566 q 730 126 790 236 q 494 -23 649 -23 q 350 23 406 -23 q 279 108 321 46 l 279 -180 l 71 -180 m 428 587 q 297 524 341 587 q 260 380 260 470 q 318 195 260 251 q 424 154 362 154 q 554 226 510 154 q 591 378 591 286 q 428 587 591 587 "},"‡":{"x_min":57.90625,"x_max":739.40625,"ha":797,"o":"m 486 966 l 486 698 l 739 698 l 739 545 l 479 545 l 479 383 l 739 383 l 739 230 l 491 230 l 491 -180 l 304 -180 l 304 230 l 57 230 l 57 383 l 319 383 l 319 545 l 57 545 l 57 698 l 314 698 l 314 966 l 486 966 "},"ň":{"x_min":71,"x_max":763,"ha":833,"o":"m 71 0 l 71 761 l 267 761 l 267 580 q 333 707 296 666 q 524 784 402 784 q 680 735 618 784 q 758 594 745 685 q 763 458 763 567 l 763 0 l 555 0 l 555 390 q 537 536 555 503 q 436 587 509 587 q 299 501 341 587 q 279 365 279 460 l 279 0 l 71 0 m 516 839 l 312 839 l 203 987 l 345 987 l 415 908 l 484 987 l 626 987 l 516 839 "},"√":{"x_min":0,"x_max":926,"ha":926,"o":"m 926 1149 l 926 987 l 678 987 l 448 0 l 209 0 l 130 376 l 0 376 l 0 538 l 280 538 l 305 420 q 323 218 323 337 l 343 218 q 394 620 343 407 l 520 1149 l 926 1149 "},"ę":{"x_min":43,"x_max":734.359375,"ha":776,"o":"m 626 -125 l 626 -190 q 535 -209 578 -209 q 426 -120 426 -209 q 498 -14 426 -57 q 406 -23 453 -23 q 152 69 245 -23 q 43 383 43 179 q 129 671 43 567 q 403 784 223 784 q 656 677 571 784 q 734 408 734 580 q 727 318 734 366 l 242 318 q 444 125 242 125 q 687 250 602 125 l 694 250 l 694 95 q 617 27 659 59 q 537 -86 537 -33 q 584 -133 537 -133 q 626 -125 598 -133 m 589 462 q 557 551 579 520 q 408 618 510 618 q 240 462 240 618 l 589 462 "},"S":{"x_min":47,"x_max":675,"ha":717,"o":"m 642 859 l 642 639 q 530 727 585 702 q 386 760 458 760 q 292 736 331 760 q 246 658 246 709 q 302 576 246 603 q 408 546 314 571 q 600 458 544 510 q 675 274 675 388 q 631 119 675 189 q 512 13 588 49 q 355 -20 440 -20 q 77 75 206 -20 l 77 277 q 191 186 140 212 q 345 149 266 149 q 441 172 403 149 q 488 255 488 201 q 434 340 488 310 q 331 375 406 356 q 131 461 195 409 q 47 654 47 530 q 153 877 47 794 q 374 947 242 947 q 642 859 518 947 "},"/":{"x_min":-30.515625,"x_max":668,"ha":790,"o":"m 539 968 l 668 907 l 94 -181 l -30 -116 l 539 968 "},"į":{"x_min":53,"x_max":304.515625,"ha":350,"o":"m 279 0 q 215 -86 215 -42 q 262 -133 215 -133 q 304 -124 276 -133 l 304 -190 q 213 -209 257 -209 q 104 -120 104 -209 q 196 0 104 -43 l 71 0 l 71 760 q 170 748 124 748 q 279 760 215 748 l 279 0 m 179 976 q 294 893 294 976 q 174 817 294 817 q 53 894 53 817 q 179 976 53 976 "},"y":{"x_min":19.671875,"x_max":757.515625,"ha":777,"o":"m 757 760 l 426 -183 l 223 -183 l 305 49 l 19 760 l 233 760 l 339 466 q 404 198 372 377 q 461 466 432 370 l 552 760 l 757 760 "},"≈":{"x_min":9.5,"x_max":685.625,"ha":694,"o":"m 108 472 l 9 537 q 84 671 48 631 q 220 731 138 731 q 364 694 266 731 q 483 662 453 662 q 543 681 520 662 q 583 733 560 695 l 685 673 q 602 544 644 586 q 464 488 544 488 q 322 525 427 488 q 210 557 235 557 q 146 532 171 557 q 108 472 130 516 m 108 190 l 9 255 q 84 389 48 349 q 220 449 138 449 q 364 412 266 449 q 484 380 453 380 q 583 451 542 380 l 685 391 q 602 262 644 304 q 464 206 544 206 q 322 243 427 206 q 210 275 235 275 q 146 249 171 275 q 108 190 130 234 "},"g":{"x_min":42,"x_max":758,"ha":829,"o":"m 758 761 l 758 191 q 753 66 758 102 q 394 -185 726 -185 q 109 -105 223 -185 l 109 52 q 371 -38 222 -38 q 542 37 496 -38 q 571 178 571 83 l 571 210 q 503 111 541 140 q 343 63 442 63 q 124 157 207 63 q 42 426 42 251 q 204 754 42 675 q 340 784 263 784 q 562 638 511 784 l 562 761 l 758 761 m 403 595 q 279 538 321 595 q 241 403 241 487 q 277 270 241 321 q 397 213 317 213 q 524 274 480 213 q 562 414 562 327 q 403 595 562 595 "},"²":{"x_min":56.375,"x_max":473,"ha":535,"o":"m 238 472 l 468 472 l 468 370 l 71 370 l 71 458 q 329 735 329 644 q 301 794 329 772 q 238 814 276 814 q 81 704 140 814 l 65 704 l 65 754 q 56 841 65 803 q 124 905 90 885 q 259 938 180 938 q 407 896 348 938 q 473 763 473 849 q 393 591 473 674 q 238 472 342 538 "},"–":{"x_min":43,"x_max":755,"ha":799,"o":"m 43 472 l 755 472 l 755 325 l 43 325 l 43 472 "},"ë":{"x_min":43,"x_max":734.359375,"ha":776,"o":"m 727 318 l 242 318 q 444 125 242 125 q 687 250 601 125 l 694 250 l 694 95 q 596 18 644 42 q 407 -23 514 -23 q 152 69 245 -23 q 43 383 43 179 q 129 671 43 567 q 403 784 223 784 q 656 677 571 784 q 734 408 734 580 q 727 318 734 366 m 589 462 q 557 551 579 520 q 408 618 510 618 q 240 462 240 618 l 589 462 m 522 988 q 607 913 607 988 q 521 837 607 837 q 435 913 435 837 q 522 988 435 988 m 277 988 q 362 913 362 988 q 276 837 362 837 q 190 913 190 837 q 277 988 190 988 "},"ƒ":{"x_min":178,"x_max":741,"ha":796,"o":"m 639 682 l 639 565 l 472 565 l 356 -92 l 181 -92 l 298 565 l 178 565 l 178 682 l 319 682 l 338 785 q 600 1040 384 1040 q 741 1008 671 1040 l 741 847 q 635 879 677 879 q 542 843 574 879 q 507 752 519 819 l 494 682 l 639 682 "},"J":{"x_min":24,"x_max":523,"ha":598,"o":"m 324 926 l 523 926 l 523 373 q 515 184 523 226 q 405 18 494 68 q 245 -20 337 -20 q 24 56 122 -20 q 24 125 24 106 q 24 217 24 162 q 186 139 97 139 q 324 283 324 139 l 324 366 l 324 926 "},"Ã":{"x_min":22.375,"x_max":884.328125,"ha":905,"o":"m 290 233 l 219 0 l 22 0 l 307 926 l 600 926 l 884 0 l 682 0 l 612 233 l 290 233 m 567 409 l 450 793 l 334 409 l 567 409 m 539 1128 l 640 1128 q 617 1046 630 1068 q 525 998 587 998 q 425 1021 495 998 q 396 1028 408 1028 q 366 1001 374 1028 l 265 1001 q 291 1085 273 1059 q 382 1132 322 1132 q 478 1108 418 1132 q 510 1102 496 1102 q 539 1128 533 1102 "},"ŕ":{"x_min":68,"x_max":572.53125,"ha":587,"o":"m 68 0 l 68 761 l 266 761 l 266 577 q 454 783 306 783 q 572 738 519 783 l 572 519 l 561 519 q 449 571 510 571 q 326 508 368 571 q 274 202 274 432 q 274 0 274 139 l 68 0 m 531 987 l 369 839 l 211 839 l 338 987 l 531 987 "},"‐":{"x_min":0,"x_max":340,"ha":340,"o":"m 0 472 l 340 472 l 340 325 l 0 325 l 0 472 "},"©":{"x_min":46,"x_max":1009,"ha":1055,"o":"m 535 947 q 782 875 668 947 q 956 683 895 803 q 1009 462 1009 578 q 939 210 1009 326 q 747 32 869 94 q 528 -21 644 -21 q 276 49 391 -21 q 99 242 161 119 q 46 462 46 346 q 116 717 46 601 q 311 895 187 833 q 535 947 412 947 m 534 861 q 255 744 368 861 q 142 462 142 628 q 253 182 142 298 q 528 66 365 66 q 803 183 691 66 q 913 462 913 299 q 857 669 913 573 q 703 816 801 764 q 534 861 625 861 m 709 678 l 709 536 l 697 536 q 545 626 644 626 q 435 578 473 626 q 402 462 402 535 q 543 289 402 289 q 697 381 638 289 l 709 381 l 709 254 q 517 174 621 174 q 353 235 417 174 q 270 474 270 315 q 331 675 270 603 q 524 753 396 753 q 709 678 631 753 "},"˘":{"x_min":160.71875,"x_max":534.390625,"ha":694,"o":"m 534 990 q 505 904 525 935 q 347 835 461 835 q 219 870 262 835 q 160 990 173 907 l 269 990 q 346 931 286 931 q 424 990 406 931 l 534 990 "},"≥":{"x_min":46,"x_max":648,"ha":695,"o":"m 46 201 l 46 369 l 457 565 l 47 761 l 47 930 l 648 641 l 648 489 l 46 201 m 46 0 l 46 162 l 648 162 l 648 0 l 46 0 "},"Ă":{"x_min":22.375,"x_max":884.328125,"ha":905,"o":"m 290 233 l 219 0 l 22 0 l 307 926 l 600 926 l 884 0 l 682 0 l 612 233 l 290 233 m 567 409 l 450 793 l 334 409 l 567 409 m 640 1139 q 611 1058 631 1087 q 453 993 567 993 q 326 1024 370 993 q 266 1139 280 1059 l 375 1139 q 453 1089 392 1089 q 530 1139 513 1089 l 640 1139 "},"D":{"x_min":75,"x_max":827,"ha":864,"o":"m 75 926 l 393 926 q 544 917 494 926 q 827 504 827 868 q 742 175 827 310 q 576 33 680 75 q 357 0 491 0 l 75 0 l 75 926 m 272 741 l 272 176 l 360 176 q 547 226 489 176 q 632 483 632 301 q 562 694 632 631 q 400 741 510 741 l 272 741 "},"ÿ":{"x_min":19.953125,"x_max":757.734375,"ha":777,"o":"m 757 760 l 426 -183 l 223 -183 l 306 49 l 19 760 l 234 760 l 340 466 q 404 198 372 377 q 461 466 431 370 l 552 760 l 757 760 m 512 988 q 597 913 597 988 q 511 837 597 837 q 425 913 425 837 q 512 988 425 988 m 267 988 q 352 913 352 988 q 266 837 352 837 q 180 913 180 837 q 267 988 180 988 "},"ĺ":{"x_min":73,"x_max":396.28125,"ha":354,"o":"m 73 0 l 73 953 l 281 953 l 281 0 l 73 0 m 396 1143 l 247 1004 l 90 1004 l 207 1143 l 396 1143 "},"ł":{"x_min":5.078125,"x_max":361.609375,"ha":366,"o":"m 79 0 l 79 386 l 5 331 l 5 452 l 79 507 l 79 966 l 287 966 l 287 602 l 361 658 l 361 537 l 287 481 l 287 0 l 79 0 "},"Ł":{"x_min":5.828125,"x_max":613.109375,"ha":642,"o":"m 272 185 l 613 185 l 613 0 l 75 0 l 75 342 l 5 286 l 5 434 l 75 490 l 75 925 l 272 925 l 272 580 l 429 699 l 429 550 l 272 432 l 272 185 "},"$":{"x_min":85,"x_max":710,"ha":795,"o":"m 367 1060 l 448 1060 l 448 947 q 652 848 563 932 l 652 627 q 563 714 596 692 q 448 755 517 746 l 448 535 q 617 459 559 502 q 710 264 710 394 q 440 -20 710 23 l 440 -153 l 359 -153 l 359 -20 q 122 84 215 -3 l 122 288 q 359 140 204 154 l 359 369 q 220 426 262 402 q 85 656 85 502 q 183 874 85 790 q 367 947 252 933 l 367 1060 m 367 755 q 276 664 276 738 q 367 564 276 601 l 367 755 m 440 151 q 530 243 530 174 q 440 336 530 308 l 440 151 "},"w":{"x_min":19.671875,"x_max":1134.578125,"ha":1154,"o":"m 1134 761 l 910 0 l 679 0 l 613 313 q 579 568 596 393 q 541 313 561 405 l 476 0 l 248 0 l 19 761 l 233 761 l 309 461 q 358 179 332 367 q 395 461 377 376 l 459 761 l 703 761 l 767 444 q 801 190 779 383 q 849 450 828 370 l 928 761 l 1134 761 "},"∫":{"x_min":64.109375,"x_max":629.28125,"ha":694,"o":"m 64 -332 l 96 -172 q 174 -186 144 -186 q 254 -86 254 -186 l 254 -61 l 254 0 l 254 661 q 268 892 254 837 q 357 1007 289 967 q 501 1043 418 1043 q 629 1028 551 1043 l 596 867 q 517 882 548 882 q 436 782 436 882 l 436 34 q 436 -105 436 -84 q 406 -239 436 -195 q 194 -347 344 -347 q 64 -332 137 -347 "},"\\":{"x_min":121.390625,"x_max":819.90625,"ha":790,"o":"m 249 968 l 819 -116 l 694 -181 l 121 907 l 249 968 "},"Ì":{"x_min":-46.390625,"x_max":273.359375,"ha":347,"o":"m 75 926 l 272 926 l 272 0 l 75 0 l 75 926 m -46 1135 l 146 1135 l 273 996 l 115 996 l -46 1135 "},"Ç":{"x_min":37,"x_max":720.96875,"ha":765,"o":"m 720 826 l 720 595 l 713 595 q 466 748 626 748 q 286 661 347 748 q 232 463 232 586 q 280 254 232 333 q 463 160 340 160 q 713 315 621 160 l 720 315 l 720 113 q 627 35 666 59 q 422 -20 536 -20 q 245 24 327 -20 q 37 482 37 136 q 127 811 37 691 q 432 947 229 947 q 720 826 596 947 m 353 -64 l 497 -64 l 406 -231 l 297 -231 l 353 -64 "},"C":{"x_min":37,"x_max":720.96875,"ha":765,"o":"m 720 826 l 720 595 l 713 595 q 466 748 626 748 q 286 661 347 748 q 232 463 232 586 q 280 254 232 333 q 463 160 340 160 q 713 315 621 160 l 720 315 l 720 113 q 627 35 666 59 q 422 -20 536 -20 q 245 24 327 -20 q 37 482 37 136 q 127 811 37 691 q 432 947 229 947 q 720 826 596 947 "},"Ē":{"x_min":75,"x_max":679.71875,"ha":750,"o":"m 75 926 l 679 926 l 679 741 l 264 741 l 264 550 l 679 550 l 679 374 l 264 374 l 264 176 l 679 176 l 679 0 l 75 0 l 75 926 m 566 1111 l 566 1009 l 188 1009 l 188 1111 l 566 1111 "},"!":{"x_min":49,"x_max":262,"ha":337,"o":"m 158 140 q 262 60 262 140 q 154 -20 262 -20 q 49 57 49 -20 q 158 140 49 140 m 238 239 l 76 239 l 76 573 q 76 675 76 644 q 76 744 76 698 q 76 812 76 789 q 76 860 76 820 q 98 932 76 915 q 170 947 116 947 q 234 931 217 947 q 238 862 238 913 l 238 786 q 238 735 238 782 q 238 671 238 692 q 238 573 238 652 l 238 239 "},"ç":{"x_min":43,"x_max":648.21875,"ha":704,"o":"m 648 673 l 648 466 l 640 466 q 564 546 605 521 q 427 587 501 587 q 242 368 242 587 q 286 208 242 266 q 435 142 336 142 q 642 276 570 142 l 648 276 q 648 175 648 214 q 648 95 648 152 q 390 -23 556 -23 q 148 71 234 -23 q 43 392 43 187 q 129 671 43 567 q 393 783 221 783 q 648 673 547 783 m 311 -64 l 454 -64 l 364 -231 l 255 -231 l 311 -64 "},"È":{"x_min":75,"x_max":679.71875,"ha":750,"o":"m 75 926 l 679 926 l 679 741 l 264 741 l 264 550 l 679 550 l 679 374 l 264 374 l 264 176 l 679 176 l 679 0 l 75 0 l 75 926 m 188 1135 l 380 1135 l 508 996 l 350 996 l 188 1135 "},"X":{"x_min":17.625,"x_max":846.359375,"ha":863,"o":"m 842 926 l 565 464 l 846 0 l 609 0 l 467 264 q 433 341 455 287 q 400 263 419 298 l 255 0 l 17 0 l 299 466 l 19 926 l 257 926 l 400 660 q 436 576 416 630 q 474 666 454 629 l 614 926 l 842 926 "},"ô":{"x_min":42,"x_max":764.890625,"ha":808,"o":"m 404 782 q 764 393 764 782 q 717 159 764 261 q 397 -23 632 -23 q 144 70 229 -23 q 42 392 42 181 q 404 782 42 782 m 407 587 q 233 371 233 587 q 404 142 233 142 q 575 382 575 142 q 407 587 575 587 m 302 987 l 505 987 l 615 839 l 473 839 l 404 917 l 334 839 l 192 839 l 302 987 "},"Ė":{"x_min":75,"x_max":679.71875,"ha":750,"o":"m 75 926 l 679 926 l 679 741 l 264 741 l 264 550 l 679 550 l 679 374 l 264 374 l 264 176 l 679 176 l 679 0 l 75 0 l 75 926 m 379 1146 q 466 1069 466 1146 q 378 991 466 991 q 316 1011 340 991 q 290 1069 290 1033 q 379 1146 290 1146 "},"Ā":{"x_min":22.5625,"x_max":884.109375,"ha":905,"o":"m 291 233 l 219 0 l 22 0 l 307 926 l 600 926 l 884 0 l 682 0 l 612 233 l 291 233 m 567 409 l 450 793 l 334 409 l 567 409 m 642 1111 l 642 1009 l 264 1009 l 264 1111 l 642 1111 "},"đ":{"x_min":43,"x_max":828,"ha":831,"o":"m 760 966 l 760 900 l 828 900 l 828 798 l 761 798 l 761 0 l 572 0 l 572 130 q 491 24 534 55 q 341 -23 427 -23 q 135 69 215 -23 q 61 221 87 125 q 43 366 43 289 q 94 600 43 492 q 341 755 168 755 q 552 625 482 755 l 552 798 l 408 798 l 408 900 l 552 900 l 552 966 l 760 966 m 409 587 q 242 365 242 587 q 401 154 242 154 q 535 226 489 154 q 575 380 575 287 q 409 587 575 587 "},"Δ":{"x_min":22.375,"x_max":902.640625,"ha":926,"o":"m 22 0 l 361 926 l 557 926 l 902 0 l 22 0 m 280 164 l 640 164 l 460 706 l 280 164 "},"}":{"x_min":43.65625,"x_max":424,"ha":514,"o":"m 264 392 q 197 462 215 423 q 182 559 182 496 l 182 720 q 155 831 182 814 q 71 844 134 844 l 43 844 l 43 963 q 138 963 119 963 q 294 924 246 963 q 348 775 348 881 l 348 572 q 424 458 348 472 l 424 327 q 361 287 378 317 q 348 213 348 263 l 348 9 q 294 -139 348 -96 q 138 -179 246 -179 q 43 -179 122 -179 l 43 -50 l 70 -50 q 177 -8 167 -50 q 182 63 182 7 l 182 226 q 197 322 182 287 q 264 392 215 361 "},"â":{"x_min":47,"x_max":681,"ha":751,"o":"m 681 0 l 507 0 l 507 113 q 276 -23 440 -23 q 114 32 177 -23 q 47 186 47 89 q 191 387 47 328 q 384 439 255 414 q 497 529 497 462 q 450 597 497 573 q 365 617 412 617 q 80 479 196 617 l 80 664 q 197 741 141 717 q 395 783 291 783 q 632 692 558 783 q 681 484 681 631 l 681 0 m 500 364 q 359 306 472 338 q 236 200 236 271 q 264 136 236 159 q 334 113 292 113 q 481 214 441 113 q 500 364 500 262 m 285 987 l 489 987 l 598 839 l 456 839 l 387 917 l 317 839 l 175 839 l 285 987 "},"ø":{"x_min":13.515625,"x_max":797.1875,"ha":808,"o":"m 13 32 l 101 128 q 42 396 42 238 q 401 783 42 783 q 638 719 544 783 l 719 806 l 797 731 l 710 636 q 766 396 766 533 q 712 148 766 254 q 398 -23 625 -23 q 169 45 261 -23 l 90 -43 l 13 32 m 297 177 q 404 142 345 142 q 575 386 575 142 q 562 479 575 432 l 297 177 m 496 567 q 401 594 452 594 q 231 373 231 594 q 243 275 231 326 l 496 567 "},"‰":{"x_min":37,"x_max":1670,"ha":1708,"o":"m 844 926 l 921 871 l 323 0 l 245 50 l 844 926 m 250 933 q 464 680 464 933 q 391 469 464 541 q 242 415 337 415 q 37 684 37 415 q 250 933 37 933 m 249 818 q 149 679 149 818 q 248 519 149 519 q 349 678 349 519 q 249 818 349 818 m 927 507 q 1143 249 1143 507 q 1094 65 1143 132 q 928 -12 1039 -12 q 716 260 716 -12 q 927 507 716 507 m 928 391 q 829 257 829 391 q 928 93 829 93 q 1028 245 1028 93 q 928 391 1028 391 m 1454 507 q 1670 249 1670 507 q 1621 65 1670 132 q 1455 -12 1566 -12 q 1243 260 1243 -12 q 1454 507 1243 507 m 1455 391 q 1357 257 1357 391 q 1455 93 1357 93 q 1555 245 1555 93 q 1455 391 1555 391 "},"Ä":{"x_min":21.984375,"x_max":884.359375,"ha":905,"o":"m 290 233 l 219 0 l 21 0 l 306 926 l 600 926 l 884 0 l 682 0 l 612 233 l 290 233 m 567 409 l 450 793 l 334 409 l 567 409 m 581 1142 q 666 1067 666 1142 q 580 991 666 991 q 519 1010 543 991 q 494 1067 494 1031 q 581 1142 494 1142 m 326 1142 q 411 1067 411 1142 q 325 991 411 991 q 264 1010 288 991 q 239 1067 239 1031 q 326 1142 239 1142 "},"ř":{"x_min":68,"x_max":572.53125,"ha":587,"o":"m 68 0 l 68 761 l 266 761 l 266 577 q 454 783 306 783 q 572 738 519 783 l 572 519 l 561 519 q 449 571 510 571 q 326 508 368 571 q 274 202 274 432 q 274 0 274 139 l 68 0 m 417 839 l 213 839 l 104 987 l 246 987 l 316 908 l 385 987 l 527 987 l 417 839 "},"—":{"x_min":0,"x_max":1103,"ha":1103,"o":"m 0 472 l 1103 472 l 1103 325 l 0 325 l 0 472 "},"N":{"x_min":75,"x_max":828,"ha":903,"o":"m 828 926 l 828 0 l 592 0 l 346 490 q 257 735 313 556 q 257 470 257 576 l 257 0 l 75 0 l 75 926 l 349 926 l 558 492 q 659 200 606 393 q 639 512 639 391 l 639 926 l 828 926 "},"⁄":{"x_min":-203.453125,"x_max":474.046875,"ha":279,"o":"m 396 944 l 474 888 l -126 -18 l -203 38 l 396 944 "},"2":{"x_min":76.46875,"x_max":711,"ha":796,"o":"m 325 157 l 702 157 l 702 0 l 98 0 l 98 138 q 501 611 501 451 q 459 713 501 675 q 353 751 417 751 q 171 672 243 751 q 102 565 140 638 l 89 565 q 76 789 89 727 q 178 892 129 861 q 385 946 263 946 q 615 874 526 946 q 711 658 711 796 q 575 359 711 504 q 325 157 492 270 "},"ü":{"x_min":71,"x_max":750,"ha":820,"o":"m 750 761 l 750 0 l 551 0 l 551 151 q 481 40 520 76 q 310 -23 413 -23 q 76 197 102 -23 q 71 380 71 242 l 71 761 l 279 761 l 279 385 q 291 224 279 259 q 397 162 315 162 q 523 242 490 162 q 542 414 542 290 l 542 761 l 750 761 m 533 988 q 618 913 618 988 q 532 837 618 837 q 446 913 446 837 q 533 988 446 988 m 288 988 q 373 913 373 988 q 287 837 373 837 q 201 913 201 837 q 288 988 201 988 "},"":{"x_min":24,"x_max":873,"ha":944,"o":"m 319 600 l 495 600 l 495 441 l 346 441 l 346 0 l 138 0 l 138 441 l 24 441 l 24 600 l 138 600 q 128 719 128 681 q 206 901 128 836 q 397 963 278 963 q 598 912 502 963 l 598 751 q 450 802 527 802 q 337 751 366 802 q 319 646 319 720 l 319 600 m 665 0 l 665 966 l 873 966 l 873 0 l 665 0 "},"˜":{"x_min":160.046875,"x_max":534.390625,"ha":694,"o":"m 433 974 l 534 974 q 511 892 524 914 q 419 843 481 843 q 320 866 389 843 q 290 873 302 873 q 261 846 268 873 l 160 846 q 185 931 168 904 q 276 978 217 978 q 373 954 312 978 q 404 948 390 948 q 433 974 427 948 "},"Ó":{"x_min":37,"x_max":844,"ha":882,"o":"m 442 947 q 844 488 844 947 q 779 175 844 298 q 436 -20 677 -20 q 124 131 227 -20 q 37 478 37 259 q 442 947 37 947 m 442 748 q 232 463 232 748 q 439 160 232 160 q 607 266 553 160 q 649 476 649 348 q 442 748 649 748 m 656 1135 l 494 996 l 335 996 l 463 1135 l 656 1135 "},"ˇ":{"x_min":135.640625,"x_max":558.140625,"ha":694,"o":"m 448 839 l 244 839 l 135 987 l 277 987 l 347 908 l 416 987 l 558 987 l 448 839 "},"Ÿ":{"x_min":16.796875,"x_max":822.203125,"ha":840,"o":"m 822 926 l 519 339 l 519 0 l 322 0 l 322 335 l 16 926 l 241 926 l 361 670 q 419 490 401 584 q 476 669 440 590 l 595 926 l 822 926 m 548 1142 q 633 1067 633 1142 q 547 991 633 991 q 486 1010 510 991 q 461 1067 461 1031 q 548 1142 461 1142 m 293 1142 q 378 1067 378 1142 q 292 991 378 991 q 231 1010 255 991 q 206 1067 206 1031 q 293 1142 206 1142 "},"ų":{"x_min":71,"x_max":775.203125,"ha":820,"o":"m 750 0 q 685 -86 685 -42 q 733 -133 685 -133 q 775 -125 746 -133 l 775 -190 q 684 -209 727 -209 q 574 -121 574 -209 q 667 0 574 -44 l 551 0 l 551 151 q 481 40 521 76 q 310 -23 413 -23 q 76 197 102 -23 q 71 380 71 242 l 71 761 l 279 761 l 279 385 q 291 224 279 259 q 397 162 315 162 q 523 242 490 162 q 542 414 542 290 l 542 761 l 750 761 l 750 0 "},"Ω":{"x_min":39,"x_max":886,"ha":925,"o":"m 39 0 l 39 162 l 228 162 q 109 265 148 212 q 39 508 39 360 q 150 813 39 690 q 462 948 272 948 q 774 813 652 948 q 886 508 886 690 q 842 307 886 388 q 697 162 798 225 l 886 162 l 886 0 l 512 0 l 512 143 q 628 242 589 188 q 697 488 697 337 q 565 757 697 680 q 462 786 516 786 q 285 689 351 786 q 228 488 228 605 q 415 143 228 248 l 415 0 l 39 0 "},"ß":{"x_min":75,"x_max":795.890625,"ha":862,"o":"m 75 0 l 75 489 q 98 717 75 638 q 431 944 167 944 q 645 888 559 944 q 747 701 747 823 q 539 483 747 528 q 656 460 612 476 q 795 261 795 409 q 738 108 795 177 q 492 -5 646 -5 q 340 34 408 -5 l 340 183 q 471 141 406 141 q 567 175 529 141 q 606 268 606 210 q 550 374 606 339 q 427 405 502 405 q 394 405 414 405 l 394 553 q 498 564 465 553 q 577 674 577 592 q 537 761 577 729 q 443 791 500 791 q 285 635 300 791 q 283 496 283 615 l 283 0 l 75 0 "},"s":{"x_min":41,"x_max":598,"ha":637,"o":"m 570 707 l 570 515 q 486 576 525 557 q 353 606 422 606 q 273 589 307 606 q 230 525 230 568 q 346 449 230 479 q 522 389 494 410 q 598 229 598 334 q 511 40 598 107 q 309 -23 433 -23 q 66 53 175 -23 l 66 229 q 152 166 113 186 q 289 134 218 134 q 414 214 414 134 q 383 270 414 251 q 243 306 361 283 q 41 531 41 346 q 130 721 41 654 q 336 783 209 783 q 570 707 466 783 "},"Ű":{"x_min":75,"x_max":785,"ha":860,"o":"m 75 927 l 272 927 l 272 396 q 299 230 272 275 q 428 167 337 167 q 572 251 539 167 q 588 401 588 291 l 588 927 l 785 927 l 785 401 q 770 200 785 248 q 429 -20 705 -20 q 206 38 295 -20 q 83 229 107 102 q 75 387 75 275 l 75 927 m 758 1135 l 616 996 l 476 996 l 593 1135 l 758 1135 m 503 1135 l 361 996 l 221 996 l 338 1135 l 503 1135 "},"?":{"x_min":61.1875,"x_max":618,"ha":674,"o":"m 284 140 q 388 60 388 140 q 280 -20 388 -20 q 175 57 175 -20 q 284 140 175 140 m 61 617 l 61 816 q 140 891 102 865 q 333 947 222 947 q 552 864 470 947 q 618 699 618 798 q 524 504 618 586 l 411 407 q 355 275 355 357 q 355 234 355 268 l 213 234 q 213 314 213 283 q 229 411 213 380 q 297 487 239 429 l 383 573 q 443 676 443 633 q 396 751 443 724 q 306 773 358 773 q 129 703 198 773 q 61 617 103 678 "},"c":{"x_min":43,"x_max":648.21875,"ha":704,"o":"m 648 673 l 648 466 l 640 466 q 564 546 605 521 q 427 587 501 587 q 242 368 242 587 q 286 208 242 266 q 435 142 336 142 q 642 276 570 142 l 648 276 q 648 175 648 214 q 648 95 648 152 q 390 -23 556 -23 q 148 71 234 -23 q 43 392 43 187 q 129 671 43 567 q 393 783 221 783 q 648 673 547 783 "},"Ņ":{"x_min":75,"x_max":828,"ha":903,"o":"m 828 926 l 828 0 l 592 0 l 346 490 q 257 735 313 556 q 257 470 257 576 l 257 0 l 75 0 l 75 926 l 349 926 l 558 492 q 659 200 606 393 q 639 512 639 391 l 639 926 l 828 926 m 402 -64 l 546 -64 l 455 -231 l 346 -231 l 402 -64 "},"¶":{"x_min":38.203125,"x_max":825,"ha":926,"o":"m 302 -127 l 302 445 q 284 445 290 445 q 118 499 187 445 q 38 681 38 561 q 181 900 38 845 q 358 926 249 926 l 825 926 l 825 787 l 723 787 l 723 -127 l 570 -127 l 570 787 l 455 787 l 455 -127 l 302 -127 "},"Ī":{"x_min":17,"x_max":331,"ha":347,"o":"m 76 926 l 273 926 l 273 0 l 76 0 l 76 926 m 331 1111 l 331 1009 l 17 1009 l 17 1111 l 331 1111 "},"•":{"x_min":272,"x_max":657,"ha":926,"o":"m 467 663 q 601 606 546 663 q 657 470 657 549 q 601 333 657 389 q 464 278 545 278 q 328 333 384 278 q 272 469 272 389 q 328 607 272 551 q 467 663 385 663 "},"(":{"x_min":51,"x_max":371.046875,"ha":421,"o":"m 206 966 l 367 966 q 301 841 323 894 q 230 397 230 669 q 298 -42 230 127 q 371 -180 322 -102 l 208 -180 q 125 -35 154 -106 q 51 398 51 149 q 206 966 51 760 "},"◊":{"x_min":102.40625,"x_max":823.96875,"ha":926,"o":"m 463 962 l 823 463 l 463 -35 l 102 463 l 463 962 m 463 839 l 189 463 l 463 86 l 736 463 l 463 839 "},"­":{"x_min":0,"x_max":340,"ha":340,"o":"m 0 472 l 340 472 l 340 325 l 0 325 l 0 472 "},":":{"x_min":56,"x_max":269,"ha":325,"o":"m 165 140 q 269 60 269 140 q 161 -20 269 -20 q 56 57 56 -20 q 165 140 56 140 m 165 696 q 269 616 269 696 q 161 536 269 536 q 56 613 56 536 q 165 696 56 696 "},"Û":{"x_min":75,"x_max":785,"ha":860,"o":"m 75 927 l 272 927 l 272 396 q 299 230 272 275 q 428 167 337 167 q 572 251 539 167 q 588 401 588 291 l 588 927 l 785 927 l 785 401 q 770 200 785 248 q 429 -20 705 -20 q 206 38 295 -20 q 83 229 107 102 q 75 387 75 275 l 75 927 m 327 1135 l 532 1135 l 641 996 l 499 996 l 430 1065 l 360 996 l 218 996 l 327 1135 "},"V":{"x_min":17.625,"x_max":825.328125,"ha":843,"o":"m 825 926 l 538 0 l 300 0 l 17 926 l 221 926 l 366 435 q 420 181 388 359 q 478 442 448 341 l 619 926 l 825 926 "},"ś":{"x_min":41,"x_max":598,"ha":637,"o":"m 570 707 l 570 515 q 486 576 525 557 q 353 606 422 606 q 273 589 307 606 q 230 525 230 568 q 346 449 230 479 q 522 389 494 410 q 598 229 598 334 q 511 40 598 107 q 309 -23 433 -23 q 66 53 175 -23 l 66 229 q 152 166 113 186 q 289 134 218 134 q 414 214 414 134 q 383 270 414 251 q 243 306 361 283 q 41 531 41 346 q 130 721 41 654 q 336 783 209 783 q 570 707 466 783 m 542 987 l 381 839 l 222 839 l 350 987 l 542 987 "},"Ŗ":{"x_min":75,"x_max":790.96875,"ha":805,"o":"m 75 926 l 430 926 q 632 895 567 926 q 753 674 753 838 q 705 508 753 575 q 481 406 644 423 l 790 0 l 547 0 l 272 391 l 272 0 l 75 0 l 75 926 m 272 750 l 272 514 l 395 514 q 558 638 558 514 q 512 733 558 708 q 400 750 482 750 l 272 750 m 356 -64 l 499 -64 l 408 -231 l 300 -231 l 356 -64 "}," ":{"x_min":0,"x_max":0,"ha":347},"@":{"x_min":-23,"x_max":922,"ha":927,"o":"m 751 185 l 868 185 q 732 51 794 93 q 471 -17 629 -17 q 119 113 259 -17 q -23 459 -23 247 q 151 834 -23 694 q 474 943 287 943 q 703 894 601 943 q 873 737 814 840 q 922 548 922 651 q 750 237 922 340 q 607 187 667 187 q 535 252 535 187 q 402 193 478 193 q 253 260 308 193 q 201 419 201 323 q 268 619 201 534 q 459 712 343 712 q 611 630 556 712 l 623 695 l 744 695 l 683 338 q 678 303 678 310 q 696 286 678 286 q 796 369 745 286 q 838 522 838 438 q 750 750 838 659 q 484 852 653 852 q 233 763 337 852 q 96 459 96 645 q 149 258 96 350 q 300 116 204 164 q 486 74 386 74 q 751 185 627 74 m 477 574 q 378 520 414 574 q 351 429 351 479 q 378 352 351 382 q 451 322 405 322 q 553 380 520 322 q 574 462 574 418 q 550 540 574 511 q 477 574 524 574 "},"¾":{"x_min":56.90625,"x_max":1310.703125,"ha":1349,"o":"m 63 926 l 456 926 l 456 810 l 277 695 q 316 698 300 698 q 431 659 388 698 q 477 547 477 618 q 388 392 477 445 q 255 359 332 359 q 56 432 140 359 q 64 475 64 451 q 64 542 64 488 l 77 542 q 236 463 139 463 q 306 484 278 463 q 338 548 338 508 q 234 626 338 626 q 121 606 188 626 l 121 704 l 279 812 l 63 812 l 63 926 m 930 944 l 1008 888 l 408 -18 l 331 38 l 930 944 m 1249 556 l 1249 204 l 1310 204 l 1310 98 l 1249 98 l 1249 0 l 1120 0 l 1120 94 l 844 94 l 844 234 l 1039 556 l 1249 556 m 1120 200 l 1120 456 l 959 200 l 1120 200 "},"i":{"x_min":53,"x_max":294,"ha":349,"o":"m 179 976 q 294 893 294 976 q 174 817 294 817 q 53 894 53 817 q 179 976 53 976 m 71 0 l 71 760 q 169 748 124 748 q 279 760 214 748 l 279 0 l 71 0 "},"≤":{"x_min":46,"x_max":648,"ha":695,"o":"m 648 930 l 648 761 l 236 565 l 648 369 l 648 201 l 46 489 l 46 641 l 648 930 m 648 162 l 648 0 l 46 0 l 46 162 l 648 162 "},"Ģ":{"x_min":30,"x_max":766,"ha":813,"o":"m 766 468 l 766 152 q 754 138 762 149 q 677 55 714 85 q 435 -20 581 -20 q 169 81 272 -20 q 30 479 30 219 q 171 852 30 729 q 447 947 280 947 q 605 919 538 947 q 739 830 669 893 l 739 614 l 730 614 q 636 703 684 674 q 471 748 561 748 q 281 661 345 748 q 225 453 225 585 q 272 243 225 324 q 449 142 331 142 q 577 185 523 142 l 577 468 l 766 468 m 363 -64 l 507 -64 l 416 -231 l 308 -231 l 363 -64 "},"m":{"x_min":71,"x_max":1174,"ha":1245,"o":"m 71 0 l 71 761 l 266 761 l 266 594 q 316 703 288 665 q 494 784 377 784 q 675 693 618 784 q 712 580 698 655 q 769 699 737 659 q 951 784 835 784 q 1099 735 1041 784 q 1169 597 1156 686 q 1174 466 1174 564 l 1174 0 l 966 0 l 966 397 q 953 539 966 507 q 861 594 933 594 q 746 524 782 594 q 728 393 728 488 l 728 0 l 520 0 l 520 393 q 503 549 520 514 q 415 596 482 596 q 297 520 332 596 q 279 388 279 481 l 279 0 l 71 0 "},"ż":{"x_min":45,"x_max":621,"ha":666,"o":"m 51 760 l 621 760 l 621 604 l 291 170 l 621 170 l 621 0 l 45 0 l 45 159 l 358 575 l 51 575 l 51 760 m 339 992 q 425 914 425 992 q 337 837 425 837 q 275 857 299 837 q 249 915 249 878 q 339 992 249 992 "},"ő":{"x_min":42,"x_max":764.890625,"ha":808,"o":"m 404 782 q 764 393 764 782 q 717 159 764 261 q 397 -23 632 -23 q 144 70 229 -23 q 42 392 42 181 q 404 782 42 782 m 407 587 q 233 371 233 587 q 404 142 233 142 q 575 382 575 142 q 407 587 575 587 m 729 987 l 587 839 l 452 839 l 568 987 l 729 987 m 484 987 l 343 839 l 208 839 l 325 987 l 484 987 "},"ž":{"x_min":45,"x_max":621,"ha":666,"o":"m 51 760 l 621 760 l 621 604 l 291 170 l 621 170 l 621 0 l 45 0 l 45 159 l 358 575 l 51 575 l 51 760 m 440 839 l 236 839 l 127 987 l 269 987 l 339 908 l 408 987 l 549 987 l 440 839 "},"á":{"x_min":47,"x_max":681,"ha":751,"o":"m 681 0 l 507 0 l 507 113 q 276 -23 440 -23 q 114 32 177 -23 q 47 186 47 89 q 191 387 47 328 q 384 439 255 414 q 497 529 497 462 q 450 597 497 573 q 365 617 412 617 q 80 479 196 617 l 80 664 q 197 741 141 717 q 395 783 291 783 q 632 692 558 783 q 681 484 681 631 l 681 0 m 500 364 q 359 306 472 338 q 236 200 236 271 q 264 136 236 159 q 334 113 292 113 q 481 214 441 113 q 500 364 500 262 m 598 987 l 436 839 l 278 839 l 405 987 l 598 987 "},"×":{"x_min":118,"x_max":679.53125,"ha":798,"o":"m 398 377 l 212 191 l 118 285 l 304 472 l 118 659 l 212 753 l 398 566 l 585 753 l 679 659 l 493 472 l 679 285 l 585 191 l 398 377 "},"İ":{"x_min":75,"x_max":272,"ha":347,"o":"m 75 926 l 272 926 l 272 0 l 75 0 l 75 926 m 175 1146 q 262 1069 262 1146 q 174 991 262 991 q 112 1011 136 991 q 86 1069 86 1033 q 175 1146 86 1146 "},"Ě":{"x_min":75,"x_max":679.71875,"ha":750,"o":"m 75 926 l 679 926 l 679 741 l 264 741 l 264 550 l 679 550 l 679 374 l 264 374 l 264 176 l 679 176 l 679 0 l 75 0 l 75 926 m 478 996 l 274 996 l 165 1135 l 307 1135 l 377 1065 l 446 1135 l 588 1135 l 478 996 "},"K":{"x_min":75,"x_max":808.359375,"ha":827,"o":"m 75 926 l 276 926 l 276 522 l 555 926 l 797 926 l 457 465 l 808 0 l 565 0 l 276 416 l 276 0 l 75 0 l 75 926 "},"7":{"x_min":79,"x_max":717,"ha":796,"o":"m 79 926 l 717 926 l 717 735 l 348 0 l 148 0 l 502 738 l 79 738 l 79 926 "},"¨":{"x_min":138,"x_max":555,"ha":694,"o":"m 470 988 q 555 913 555 988 q 469 837 555 837 q 383 913 383 837 q 470 988 383 988 m 225 988 q 310 913 310 988 q 224 837 310 837 q 138 913 138 837 q 225 988 138 988 "},"Y":{"x_min":16.828125,"x_max":821.453125,"ha":839,"o":"m 821 926 l 519 339 l 519 0 l 322 0 l 322 335 l 16 926 l 241 926 l 361 670 q 419 490 401 584 q 476 669 439 590 l 594 926 l 821 926 "},"E":{"x_min":75,"x_max":679.71875,"ha":750,"o":"m 75 926 l 679 926 l 679 741 l 264 741 l 264 550 l 679 550 l 679 374 l 264 374 l 264 176 l 679 176 l 679 0 l 75 0 l 75 926 "},"Ô":{"x_min":37,"x_max":844,"ha":882,"o":"m 442 947 q 844 488 844 947 q 779 175 844 298 q 436 -20 677 -20 q 124 131 227 -20 q 37 478 37 259 q 442 947 37 947 m 442 748 q 232 463 232 748 q 439 160 232 160 q 607 266 553 160 q 649 476 649 348 q 442 748 649 748 m 337 1135 l 542 1135 l 651 996 l 509 996 l 440 1065 l 370 996 l 228 996 l 337 1135 "},"‹":{"x_min":56.28125,"x_max":309.921875,"ha":366,"o":"m 166 629 l 309 629 l 212 398 l 309 168 l 166 168 l 56 398 l 166 629 "},"Ï":{"x_min":-25,"x_max":373,"ha":347,"o":"m 76 926 l 273 926 l 273 0 l 76 0 l 76 926 m 288 1142 q 373 1067 373 1142 q 287 991 373 991 q 226 1010 250 991 q 201 1067 201 1031 q 288 1142 201 1142 m 62 1142 q 147 1067 147 1142 q 61 991 147 991 q 0 1010 24 991 q -25 1067 -25 1031 q 62 1142 -25 1142 "},"ķ":{"x_min":71,"x_max":788.96875,"ha":799,"o":"m 71 0 l 71 966 l 283 966 l 283 407 l 524 753 l 773 753 l 471 381 l 788 0 l 527 0 l 279 347 l 279 0 l 71 0 m 341 -64 l 485 -64 l 394 -231 l 285 -231 l 341 -64 "},"±":{"x_min":68,"x_max":729,"ha":797,"o":"m 332 406 l 68 406 l 68 540 l 332 540 l 332 794 l 466 794 l 466 540 l 729 540 l 729 406 l 466 406 l 466 179 l 332 179 l 332 406 m 68 -9 l 68 125 l 729 125 l 729 -9 l 68 -9 "},"ì":{"x_min":-43.609375,"x_max":279,"ha":349,"o":"m 71 0 l 71 760 q 169 748 124 748 q 279 760 214 748 l 279 0 l 71 0 m -43 987 l 148 987 l 276 839 l 118 839 l -43 987 "},"|":{"x_min":257,"x_max":437,"ha":694,"o":"m 257 927 l 437 927 l 437 -231 l 257 -231 l 257 927 "},"§":{"x_min":97,"x_max":701,"ha":799,"o":"m 668 858 l 668 653 q 567 742 613 711 q 376 812 463 812 q 316 794 341 812 q 287 741 287 774 q 454 643 287 689 q 701 405 701 575 q 672 295 701 338 q 590 212 654 270 q 655 145 637 173 q 680 55 680 108 q 560 -140 680 -71 q 385 -185 484 -185 q 234 -157 305 -185 q 98 -82 181 -136 l 98 126 q 381 -29 254 -29 q 457 -7 422 -29 q 497 56 497 17 q 459 104 497 84 q 295 163 431 120 q 154 234 198 194 q 97 376 97 287 q 207 567 97 478 q 109 731 109 638 q 212 918 109 846 q 389 971 288 971 q 668 858 537 971 m 361 507 q 268 391 268 462 q 380 297 268 334 l 438 278 q 533 397 533 321 q 488 464 533 439 q 406 493 469 474 l 361 507 "},"q":{"x_min":43,"x_max":759,"ha":830,"o":"m 759 761 l 759 -180 l 550 -180 l 550 107 q 498 38 519 59 q 335 -23 437 -23 q 136 67 209 -23 q 43 392 43 181 q 222 760 43 680 q 337 784 276 784 q 567 623 503 784 l 567 761 l 759 761 m 406 588 q 242 371 242 588 q 400 154 242 154 q 532 222 486 154 q 572 372 572 282 q 406 588 572 588 "},"b":{"x_min":72,"x_max":783,"ha":826,"o":"m 72 0 l 72 966 l 279 966 l 279 636 q 351 735 313 705 q 504 783 412 783 q 723 663 650 783 q 783 408 783 565 q 688 83 783 209 q 474 -23 608 -23 q 258 121 325 -23 l 258 0 l 72 0 m 428 586 q 297 517 339 586 q 261 368 261 460 q 295 221 261 277 q 424 154 338 154 q 584 378 584 154 q 428 586 584 586 "},"®":{"x_min":46,"x_max":1009,"ha":1055,"o":"m 535 947 q 782 875 668 947 q 956 683 895 803 q 1009 462 1009 578 q 939 210 1009 326 q 747 32 869 94 q 528 -21 644 -21 q 276 49 391 -21 q 99 242 161 119 q 46 462 46 346 q 116 717 46 601 q 311 895 187 833 q 535 947 412 947 m 534 861 q 255 744 368 861 q 142 462 142 628 q 253 182 142 298 q 528 66 365 66 q 803 183 691 66 q 913 462 913 299 q 857 669 913 574 q 703 816 801 764 q 534 861 625 861 m 295 741 l 523 741 q 676 709 632 741 q 731 587 731 668 q 564 426 731 443 l 760 185 l 594 185 l 429 407 l 429 185 l 295 185 l 295 741 m 429 628 l 429 498 l 501 498 q 599 566 599 498 q 570 619 599 606 q 504 628 551 628 l 429 628 "},"L":{"x_min":75,"x_max":612.4375,"ha":641,"o":"m 272 185 l 612 185 l 612 0 l 75 0 l 75 925 l 272 925 l 272 185 "},"ď":{"x_min":43,"x_max":1015.984375,"ha":1016,"o":"m 761 966 l 761 0 l 572 0 l 572 130 q 492 24 534 55 q 341 -23 427 -23 q 134 69 216 -23 q 61 226 86 124 q 43 380 43 300 q 94 628 43 514 q 215 753 132 712 q 341 783 273 783 q 552 653 482 783 l 552 966 l 761 966 m 409 586 q 278 518 322 586 q 242 370 242 461 q 401 154 242 154 q 535 226 489 154 q 575 379 575 287 q 409 586 575 586 m 872 966 l 1015 966 l 925 753 l 816 753 l 872 966 "}," ":{"x_min":0,"x_max":0,"ha":347},"∑":{"x_min":28.96875,"x_max":875,"ha":927,"o":"m 861 1043 l 861 699 l 699 699 l 680 881 l 232 881 l 578 371 l 232 -185 l 699 -185 l 699 0 l 875 0 l 875 -347 l 28 -347 l 28 -166 l 367 371 l 29 862 l 29 1043 l 861 1043 "},"À":{"x_min":22.375,"x_max":884.328125,"ha":905,"o":"m 290 233 l 219 0 l 22 0 l 307 926 l 600 926 l 884 0 l 682 0 l 612 233 l 290 233 m 567 409 l 450 793 l 334 409 l 567 409 m 238 1135 l 430 1135 l 558 996 l 400 996 l 238 1135 "},"+":{"x_min":69,"x_max":730,"ha":799,"o":"m 333 405 l 69 405 l 69 539 l 333 539 l 333 794 l 467 794 l 467 539 l 730 539 l 730 405 l 467 405 l 467 151 l 333 151 l 333 405 "},"½":{"x_min":62.265625,"x_max":1285,"ha":1348,"o":"m 402 926 l 402 370 l 263 370 l 263 793 q 241 778 258 789 l 62 668 l 62 782 l 284 926 l 402 926 m 929 944 l 1007 888 l 407 -18 l 330 38 l 929 944 m 1051 102 l 1280 102 l 1280 0 l 884 0 l 884 89 q 1142 365 1142 272 q 1051 444 1142 444 q 894 333 953 444 l 878 333 l 878 383 q 869 471 878 433 q 937 535 903 515 q 1072 568 993 568 q 1219 526 1161 568 q 1285 393 1285 479 q 1206 221 1285 304 q 1051 102 1155 168 "},"Ë":{"x_min":75,"x_max":679.71875,"ha":750,"o":"m 75 926 l 679 926 l 679 741 l 264 741 l 264 550 l 679 550 l 679 374 l 264 374 l 264 176 l 679 176 l 679 0 l 75 0 l 75 926 m 506 1142 q 591 1067 591 1142 q 505 991 591 991 q 444 1010 468 991 q 419 1067 419 1031 q 506 1142 419 1142 m 251 1142 q 336 1067 336 1142 q 250 991 336 991 q 189 1010 213 991 q 164 1067 164 1031 q 251 1142 164 1142 "},"'":{"x_min":56.28125,"x_max":256.34375,"ha":313,"o":"m 222 554 l 90 554 l 56 927 l 256 927 l 222 554 "},"Š":{"x_min":47,"x_max":675,"ha":717,"o":"m 642 859 l 642 639 q 530 727 585 702 q 386 760 458 760 q 292 736 331 760 q 246 658 246 709 q 302 576 246 603 q 408 546 314 571 q 600 458 544 510 q 675 274 675 388 q 631 119 675 189 q 512 13 588 49 q 355 -20 440 -20 q 77 75 206 -20 l 77 277 q 191 186 140 212 q 345 149 266 149 q 441 172 403 149 q 488 255 488 201 q 434 340 488 310 q 331 375 406 356 q 131 461 195 409 q 47 654 47 530 q 153 877 47 794 q 374 947 242 947 q 642 859 518 947 m 475 996 l 271 996 l 161 1135 l 303 1135 l 373 1065 l 442 1135 l 584 1135 l 475 996 "},"˛":{"x_min":465,"x_max":665.515625,"ha":695,"o":"m 558 0 l 640 0 q 576 -86 576 -42 q 623 -133 576 -133 q 665 -125 637 -133 l 665 -190 q 574 -209 617 -209 q 465 -121 465 -209 q 558 0 465 -44 "},"ð":{"x_min":43,"x_max":765.890625,"ha":809,"o":"m 173 878 l 224 970 q 430 916 343 954 l 571 988 l 618 913 l 523 865 q 669 696 603 803 q 765 342 765 539 q 672 72 765 168 q 405 -23 578 -23 q 136 73 230 -23 q 43 343 43 169 q 123 598 43 500 q 363 703 209 703 q 455 688 411 703 q 373 791 422 755 l 234 725 l 196 797 l 287 843 q 173 878 228 867 m 403 521 q 278 470 325 521 q 232 341 232 421 q 274 201 232 255 q 404 142 321 142 q 523 190 479 142 q 576 338 576 246 q 530 471 576 421 q 403 521 485 521 "},"ş":{"x_min":41,"x_max":598,"ha":637,"o":"m 570 707 l 570 515 q 486 576 525 557 q 353 606 422 606 q 273 589 307 606 q 230 525 230 568 q 346 449 230 479 q 522 389 494 410 q 598 229 598 334 q 511 40 598 107 q 309 -23 433 -23 q 66 53 175 -23 l 66 229 q 152 166 113 186 q 289 134 218 134 q 414 214 414 134 q 383 270 414 251 q 243 306 361 283 q 41 531 41 346 q 130 721 41 654 q 336 783 209 783 q 570 707 466 783 m 242 -64 l 386 -64 l 295 -231 l 187 -231 l 242 -64 "},"ı":{"x_min":71,"x_max":279,"ha":349,"o":"m 71 0 l 71 760 q 169 748 124 748 q 279 760 214 748 l 279 0 l 71 0 "},"Ć":{"x_min":37,"x_max":720.96875,"ha":765,"o":"m 720 826 l 720 595 l 713 595 q 466 748 626 748 q 286 661 347 748 q 232 463 232 586 q 280 254 232 333 q 463 160 340 160 q 713 315 621 160 l 720 315 l 720 113 q 627 35 666 59 q 422 -20 536 -20 q 245 24 327 -20 q 37 482 37 136 q 127 811 37 691 q 432 947 229 947 q 720 826 596 947 m 638 1135 l 476 996 l 318 996 l 446 1135 l 638 1135 "},"ä":{"x_min":47,"x_max":681,"ha":751,"o":"m 681 0 l 507 0 l 507 113 q 275 -23 439 -23 q 114 32 177 -23 q 47 186 47 89 q 191 387 47 328 q 383 439 255 414 q 497 529 497 462 q 450 597 497 573 q 364 617 412 617 q 80 479 196 617 l 80 664 q 197 741 141 717 q 395 783 291 783 q 631 692 557 783 q 681 484 681 631 l 681 0 m 500 364 q 359 306 472 338 q 236 200 236 271 q 264 136 236 159 q 334 113 292 113 q 481 214 441 113 q 500 364 500 262 m 509 988 q 594 913 594 988 q 508 837 594 837 q 422 913 422 837 q 509 988 422 988 m 264 988 q 349 913 349 988 q 263 837 349 837 q 177 913 177 837 q 264 988 177 988 "},"¹":{"x_min":62.265625,"x_max":402,"ha":534,"o":"m 402 926 l 402 370 l 263 370 l 263 793 q 241 778 258 789 l 62 668 l 62 782 l 284 926 l 402 926 "},"£":{"x_min":98,"x_max":697.421875,"ha":796,"o":"m 341 509 l 628 509 l 628 419 l 362 419 q 367 366 367 388 q 327 204 367 297 q 359 207 349 207 q 519 164 412 207 q 555 158 534 158 q 688 228 620 158 l 697 228 l 697 69 q 484 -20 597 -20 q 370 6 444 -20 q 256 32 295 32 q 181 15 215 32 q 114 -26 166 8 l 114 118 q 199 177 152 156 q 223 283 223 235 q 185 419 223 345 l 98 419 l 98 509 l 149 509 q 116 658 116 592 q 208 871 116 788 q 429 949 297 949 q 697 825 594 949 q 697 747 697 798 q 697 668 697 695 l 697 640 q 689 625 697 625 q 674 646 681 625 q 589 740 656 702 q 466 777 527 777 q 346 725 391 777 q 319 639 319 693 q 341 509 319 591 "},"ů":{"x_min":71,"x_max":750,"ha":820,"o":"m 750 761 l 750 0 l 551 0 l 551 151 q 481 40 520 76 q 310 -23 413 -23 q 76 197 102 -23 q 71 380 71 242 l 71 761 l 279 761 l 279 385 q 291 224 279 259 q 397 162 315 162 q 523 242 490 162 q 542 414 542 290 l 542 761 l 750 761 m 409 1091 q 502 1053 465 1091 q 540 959 540 1015 q 501 869 540 906 q 409 832 463 832 q 317 869 354 832 q 280 961 280 906 q 317 1053 280 1016 q 409 1091 354 1091 m 409 1017 q 370 1000 386 1017 q 354 961 354 984 q 370 922 354 938 q 409 906 386 906 q 449 921 432 906 q 466 960 466 937 q 409 1017 466 1017 "},"Ō":{"x_min":37,"x_max":844,"ha":882,"o":"m 442 947 q 844 488 844 947 q 779 175 844 298 q 436 -20 677 -20 q 124 131 227 -20 q 37 478 37 259 q 442 947 37 947 m 442 748 q 232 463 232 748 q 439 160 232 160 q 607 266 553 160 q 649 476 649 348 q 442 748 649 748 m 630 1112 l 630 1010 l 252 1010 l 252 1112 l 630 1112 "},"W":{"x_min":16.953125,"x_max":1220.03125,"ha":1236,"o":"m 1220 926 l 983 0 l 745 0 l 649 483 q 613 736 635 555 q 578 483 592 554 l 480 0 l 247 0 l 16 926 l 219 926 l 320 487 q 365 175 341 400 q 407 488 390 407 l 498 926 l 730 926 l 818 505 q 863 155 839 405 q 915 507 891 404 l 1013 926 l 1220 926 "},"Ğ":{"x_min":30,"x_max":766,"ha":813,"o":"m 766 468 l 766 152 q 754 138 762 149 q 677 55 714 85 q 435 -20 581 -20 q 169 81 272 -20 q 30 479 30 219 q 171 852 30 729 q 447 947 280 947 q 605 919 538 947 q 739 830 669 893 l 739 614 l 730 614 q 636 703 684 674 q 471 748 561 748 q 281 661 345 748 q 225 453 225 585 q 272 243 225 324 q 449 142 331 142 q 577 185 523 142 l 577 468 l 766 468 m 627 1139 q 598 1058 618 1087 q 441 993 554 993 q 314 1024 357 993 q 254 1139 267 1059 l 363 1139 q 440 1089 380 1089 q 517 1139 500 1089 l 627 1139 "},"v":{"x_min":19.671875,"x_max":756.84375,"ha":776,"o":"m 756 761 l 512 0 l 272 0 l 19 761 l 235 761 l 346 389 q 392 158 370 310 q 439 389 417 314 l 545 761 l 756 761 "},">":{"x_min":46,"x_max":648,"ha":695,"o":"m 46 81 l 46 259 l 457 464 l 47 669 l 47 846 l 648 539 l 648 388 l 46 81 "},"û":{"x_min":71,"x_max":750,"ha":820,"o":"m 750 761 l 750 0 l 551 0 l 551 151 q 481 40 521 76 q 310 -23 413 -23 q 76 197 102 -23 q 71 380 71 242 l 71 761 l 279 761 l 279 385 q 291 224 279 259 q 397 162 315 162 q 523 242 490 162 q 542 414 542 290 l 542 761 l 750 761 m 308 987 l 512 987 l 622 839 l 480 839 l 410 917 l 340 839 l 199 839 l 308 987 "},"Ź":{"x_min":47,"x_max":668,"ha":715,"o":"m 55 926 l 667 926 l 667 707 l 284 176 l 668 176 l 668 0 l 47 0 l 47 184 l 450 741 l 55 741 l 55 926 m 581 1135 l 419 996 l 261 996 l 389 1135 l 581 1135 "},"Ų":{"x_min":75,"x_max":785,"ha":860,"o":"m 686 -119 l 686 -185 q 595 -204 638 -204 q 486 -114 486 -204 q 552 -5 486 -50 q 427 -21 487 -21 q 205 38 295 -21 q 83 228 107 102 q 75 386 75 274 l 75 926 l 272 926 l 272 395 q 299 229 272 274 q 428 166 337 166 q 572 250 539 166 q 588 400 588 290 l 588 926 l 785 926 l 785 400 q 782 267 785 299 q 665 42 770 134 q 597 -75 597 -17 q 644 -127 597 -127 q 686 -119 659 -127 "},"Ð":{"x_min":5,"x_max":827,"ha":864,"o":"m 74 926 l 391 926 q 542 917 493 926 q 764 770 692 893 q 827 504 827 665 q 742 173 827 309 q 356 0 634 0 l 74 0 l 74 412 l 5 412 l 5 542 l 74 542 l 74 926 m 271 741 l 271 542 l 451 542 l 451 412 l 271 412 l 271 176 l 358 176 q 545 226 487 176 q 632 486 632 300 q 560 695 632 631 q 398 741 509 741 l 271 741 "},"ˉ":{"x_min":158,"x_max":536,"ha":694,"o":"m 536 964 l 536 862 l 158 862 l 158 964 l 536 964 "},"Ĺ":{"x_min":75,"x_max":612.4375,"ha":641,"o":"m 272 185 l 612 185 l 612 0 l 75 0 l 75 925 l 272 925 l 272 185 m 411 1135 l 248 996 l 91 996 l 218 1135 l 411 1135 "},"r":{"x_min":68,"x_max":572.53125,"ha":587,"o":"m 68 0 l 68 761 l 266 761 l 266 577 q 454 783 306 783 q 572 738 519 783 l 572 519 l 561 519 q 449 571 510 571 q 326 508 368 571 q 274 202 274 432 q 274 0 274 139 l 68 0 "},"Č":{"x_min":37,"x_max":720.96875,"ha":765,"o":"m 720 826 l 720 595 l 713 595 q 466 748 626 748 q 286 661 347 748 q 232 463 232 586 q 280 254 232 333 q 463 160 340 160 q 713 315 621 160 l 720 315 l 720 113 q 627 35 666 59 q 422 -20 536 -20 q 245 24 327 -20 q 37 482 37 136 q 127 811 37 691 q 432 947 229 947 q 720 826 596 947 m 531 996 l 327 996 l 218 1135 l 360 1135 l 430 1065 l 499 1135 l 640 1135 l 531 996 "},"x":{"x_min":19.671875,"x_max":758.1875,"ha":781,"o":"m 758 761 l 521 384 l 754 0 l 514 0 l 419 185 q 389 250 410 207 q 357 179 372 206 l 256 0 l 19 0 l 261 384 l 29 761 l 267 761 l 356 585 q 392 500 372 553 q 431 585 401 522 l 521 761 l 758 761 "},"è":{"x_min":43,"x_max":734.359375,"ha":776,"o":"m 727 318 l 242 318 q 444 125 242 125 q 687 250 602 125 l 694 250 l 694 95 q 596 18 644 42 q 407 -23 514 -23 q 152 69 245 -23 q 43 383 43 179 q 129 671 43 567 q 403 784 223 784 q 656 677 571 784 q 734 408 734 580 q 727 318 734 366 m 589 462 q 557 551 579 520 q 408 618 511 618 q 240 462 240 618 l 589 462 m 195 987 l 387 987 l 515 839 l 357 839 l 195 987 "},"Ø":{"x_min":9.203125,"x_max":880.296875,"ha":882,"o":"m 9 45 l 107 159 q 37 485 37 290 q 438 947 37 947 q 712 866 610 947 l 798 967 l 880 892 l 784 779 q 843 492 843 667 q 604 11 843 111 q 436 -20 528 -20 q 176 71 283 -20 l 91 -28 l 9 45 m 307 210 q 438 160 365 160 q 607 267 553 160 q 648 476 648 348 q 632 606 648 554 l 307 210 m 570 706 q 442 748 515 748 q 232 468 232 748 q 250 317 232 389 l 570 706 "},"Ń":{"x_min":75,"x_max":828,"ha":903,"o":"m 828 926 l 828 0 l 592 0 l 346 490 q 257 735 313 556 q 257 470 257 576 l 257 0 l 75 0 l 75 926 l 349 926 l 558 492 q 659 200 606 393 q 639 512 639 391 l 639 926 l 828 926 m 671 1135 l 509 996 l 351 996 l 478 1135 l 671 1135 "},"μ":{"x_min":37,"x_max":660,"ha":694,"o":"m 37 -240 l 37 667 l 217 667 l 217 314 q 352 128 217 128 q 481 318 481 128 l 481 667 l 660 667 l 660 0 l 481 0 l 481 77 q 439 18 460 36 q 348 -14 401 -14 q 217 70 266 -14 l 217 -240 l 37 -240 "},"÷":{"x_min":68,"x_max":729,"ha":797,"o":"m 68 411 l 68 535 l 729 535 l 729 411 l 68 411 m 401 336 q 505 256 505 336 q 397 176 505 176 q 292 253 292 176 q 401 336 292 336 m 401 769 q 505 689 505 769 q 397 609 505 609 q 292 686 292 609 q 401 769 292 769 "},"h":{"x_min":71,"x_max":761,"ha":832,"o":"m 71 0 l 71 966 l 279 966 l 279 618 q 355 729 313 694 q 521 785 421 785 q 730 675 670 785 q 756 567 756 628 q 761 454 761 551 l 761 0 l 553 0 l 553 413 q 537 533 553 501 q 431 589 510 589 q 308 522 349 589 q 279 372 279 473 l 279 0 l 71 0 "},".":{"x_min":56,"x_max":269,"ha":325,"o":"m 165 140 q 269 60 269 140 q 161 -20 269 -20 q 56 57 56 -20 q 165 140 56 140 "},"f":{"x_min":24,"x_max":598.40625,"ha":619,"o":"m 319 600 l 587 600 l 587 441 l 346 441 l 346 0 l 138 0 l 138 441 l 24 441 l 24 600 l 138 600 q 128 718 128 680 q 205 900 128 834 q 396 962 278 962 q 598 911 501 962 l 598 750 q 449 801 527 801 q 337 750 366 801 q 319 646 319 719 l 319 600 "},"“":{"x_min":54,"x_max":392.703125,"ha":451,"o":"m 376 647 l 239 647 l 239 666 q 285 927 239 811 l 392 927 q 371 740 371 859 q 376 647 371 697 m 191 647 l 54 647 l 54 666 q 100 927 54 811 l 207 927 q 186 740 186 858 q 191 647 186 697 "},"A":{"x_min":22.375,"x_max":884.328125,"ha":905,"o":"m 290 233 l 219 0 l 22 0 l 307 926 l 600 926 l 884 0 l 682 0 l 612 233 l 290 233 m 567 409 l 450 793 l 334 409 l 567 409 "},"‘":{"x_min":54,"x_max":207.703125,"ha":266,"o":"m 191 647 l 54 647 l 54 666 q 100 927 54 811 l 207 927 q 186 740 186 858 q 191 647 186 697 "},"π":{"x_min":53,"x_max":874,"ha":926,"o":"m 160 0 l 160 505 l 53 505 l 53 667 l 874 667 l 874 505 l 769 505 l 769 0 l 589 0 l 589 505 l 340 505 l 340 0 l 160 0 "},"O":{"x_min":37,"x_max":844,"ha":882,"o":"m 442 947 q 844 488 844 947 q 779 175 844 298 q 436 -20 677 -20 q 124 131 227 -20 q 37 478 37 259 q 442 947 37 947 m 442 748 q 232 463 232 748 q 439 160 232 160 q 607 266 553 160 q 649 476 649 348 q 442 748 649 748 "},"Đ":{"x_min":5,"x_max":827,"ha":864,"o":"m 74 926 l 391 926 q 542 917 493 926 q 764 770 692 893 q 827 504 827 665 q 742 173 827 309 q 356 0 634 0 l 74 0 l 74 412 l 5 412 l 5 542 l 74 542 l 74 926 m 271 741 l 271 542 l 451 542 l 451 412 l 271 412 l 271 176 l 358 176 q 545 226 487 176 q 632 486 632 300 q 560 695 632 631 q 398 741 509 741 l 271 741 "},"3":{"x_min":77.546875,"x_max":719,"ha":796,"o":"m 85 927 l 687 927 l 687 743 l 382 532 q 469 540 437 540 q 652 474 586 540 q 719 292 719 409 q 663 111 719 189 q 377 -20 569 -20 q 77 97 202 -20 q 87 169 87 129 q 87 275 87 186 l 95 275 q 192 182 142 211 q 348 140 266 140 q 466 180 420 140 q 515 293 515 223 q 345 433 515 433 q 175 402 274 433 l 175 554 l 439 749 l 85 749 l 85 927 "},"9":{"x_min":62,"x_max":733,"ha":795,"o":"m 555 454 q 508 373 536 401 q 343 315 449 315 q 127 412 206 315 q 62 623 62 492 q 229 915 62 844 q 396 947 305 947 q 667 819 586 947 q 733 514 733 715 q 627 87 733 227 q 375 -20 546 -20 q 83 100 200 -20 q 97 185 97 135 q 97 270 97 190 l 104 270 q 189 180 143 209 q 350 134 262 134 q 546 293 509 134 q 561 454 561 354 l 555 454 m 390 769 q 277 727 318 769 q 236 614 236 686 q 388 469 236 469 q 502 509 458 469 q 546 621 546 550 q 503 730 546 691 q 390 769 461 769 "},"l":{"x_min":73,"x_max":281,"ha":354,"o":"m 73 0 l 73 966 l 281 966 l 281 0 l 73 0 "},"":{"x_min":24,"x_max":884,"ha":939,"o":"m 319 600 l 495 600 l 495 441 l 346 441 l 346 0 l 138 0 l 138 441 l 24 441 l 24 600 l 138 600 q 128 719 128 680 q 206 900 128 834 q 397 963 279 963 q 598 912 502 963 l 598 750 q 450 802 527 802 q 336 751 365 802 q 319 646 319 719 l 319 600 m 769 976 q 884 893 884 976 q 764 817 884 817 q 643 894 643 817 q 769 976 643 976 m 660 0 l 660 760 q 758 748 713 748 q 868 760 802 748 l 868 0 l 660 0 "},"4":{"x_min":46.390625,"x_max":758.296875,"ha":796,"o":"m 662 925 l 662 330 l 758 330 l 758 167 l 662 167 l 662 0 l 475 0 l 475 158 l 46 158 l 46 387 l 347 925 l 662 925 m 475 317 l 475 791 l 204 317 l 475 317 "},"Ť":{"x_min":38,"x_max":763,"ha":801,"o":"m 38 926 l 763 926 l 763 731 l 500 731 l 500 0 l 303 0 l 303 731 l 38 731 l 38 926 m 502 996 l 298 996 l 189 1135 l 331 1135 l 401 1065 l 470 1135 l 611 1135 l 502 996 "},"Ü":{"x_min":75,"x_max":785,"ha":860,"o":"m 75 927 l 272 927 l 272 396 q 299 230 272 275 q 428 167 337 167 q 572 251 539 167 q 588 401 588 291 l 588 927 l 785 927 l 785 401 q 770 200 785 248 q 429 -20 705 -20 q 206 38 295 -20 q 83 229 107 102 q 75 387 75 275 l 75 927 m 558 1142 q 643 1067 643 1142 q 557 991 643 991 q 496 1010 520 991 q 471 1067 471 1031 q 558 1142 471 1142 m 304 1142 q 389 1067 389 1142 q 303 991 389 991 q 242 1010 266 991 q 217 1067 217 1031 q 304 1142 217 1142 "},"à":{"x_min":47,"x_max":681,"ha":751,"o":"m 681 0 l 507 0 l 507 113 q 276 -23 440 -23 q 114 32 177 -23 q 47 186 47 89 q 191 387 47 328 q 384 439 255 414 q 497 529 497 462 q 450 597 497 573 q 365 617 412 617 q 80 479 196 617 l 80 664 q 197 741 141 717 q 395 783 291 783 q 632 692 558 783 q 681 484 681 631 l 681 0 m 500 364 q 359 306 472 338 q 236 200 236 271 q 264 136 236 159 q 334 113 292 113 q 481 214 441 113 q 500 364 500 262 m 176 987 l 369 987 l 496 839 l 338 839 l 176 987 "},"Ś":{"x_min":47,"x_max":675,"ha":717,"o":"m 642 859 l 642 639 q 530 727 585 702 q 386 760 458 760 q 292 736 331 760 q 246 658 246 709 q 302 576 246 603 q 408 546 314 571 q 600 458 544 510 q 675 274 675 388 q 631 119 675 189 q 512 13 588 49 q 355 -20 440 -20 q 77 75 206 -20 l 77 277 q 191 186 140 212 q 345 149 266 149 q 441 172 403 149 q 488 255 488 201 q 434 340 488 310 q 331 375 406 356 q 131 461 195 409 q 47 654 47 530 q 153 877 47 794 q 374 947 242 947 q 642 859 518 947 m 589 1135 l 427 996 l 269 996 l 397 1135 l 589 1135 "},"ó":{"x_min":42,"x_max":764.890625,"ha":808,"o":"m 404 782 q 764 393 764 782 q 717 159 764 261 q 397 -23 632 -23 q 144 70 229 -23 q 42 392 42 181 q 404 782 42 782 m 407 587 q 233 371 233 587 q 404 142 233 142 q 575 382 575 142 q 407 587 575 587 m 625 987 l 463 839 l 305 839 l 432 987 l 625 987 "},"ŗ":{"x_min":49.015625,"x_max":572.53125,"ha":587,"o":"m 68 0 l 68 761 l 266 761 l 266 577 q 454 783 306 783 q 572 738 519 783 l 572 519 l 561 519 q 449 571 510 571 q 326 508 368 571 q 274 202 274 432 q 274 0 274 139 l 68 0 m 104 -64 l 248 -64 l 157 -231 l 49 -231 l 104 -64 "}}}
